<?xml version="1.0" encoding="UTF-8"?>
<svg width="21px" height="24px" viewBox="0 0 21 24" version="1.1" xmlns="http://www.w3.org/2000/svg" xmlns:xlink="http://www.w3.org/1999/xlink">
    <!-- Generator: sketchtool 63.1 (101010) - https://sketch.com -->
    <title>9478836D-1C1B-4370-ACB6-68FD4629CB50</title>
    <desc>Created with sketchtool.</desc>
    <g id="Page-1" stroke="none" stroke-width="1" fill="none" fill-rule="evenodd">
        <g id="Account-Settings---Payouts-V2---PayPal-Only" transform="translate(-169.000000, -547.000000)" fill-rule="nonzero">
            <g id="PayPal" transform="translate(169.000000, 509.000000)">
                <g id="paypal-icon" transform="translate(0.000000, 38.000000)">
                    <path d="M17.312111,1.81613662 C16.201326,0.55006176 14.1933992,0.00726464687 11.624659,0.00726464687 L4.16946944,0.00726464687 C3.6444298,0.00726464687 3.19733093,0.389043723 3.11504479,0.90759518 L0.0108415931,20.5952108 C-0.0508598264,20.9834355 0.249755229,21.3349901 0.643241285,21.3349901 L5.24581643,21.3349901 L6.40172157,14.003283 L6.36584865,14.2328697 C6.44819693,13.7146256 6.89142677,13.3323797 7.41628742,13.3323797 L9.60341939,13.3323797 C13.9000384,13.3323797 17.2643601,11.5872021 18.2471186,6.53876647 C18.2762953,6.38945541 18.3015658,6.24413023 18.3234084,6.10215319 C18.1993678,6.03646589 18.1993678,6.03646589 18.3234084,6.10215319 C18.6160517,4.23620341 18.3214154,2.96606295 17.312111,1.81613662" id="Path" fill="#27346A"></path>
                    <path d="M8.16284271,5.42997442 C8.28866998,5.37006046 8.42629226,5.3390117 8.56565572,5.33909636 L14.4103904,5.33909636 C15.1024986,5.33909636 15.7480517,5.3841368 16.3379619,5.47908046 C16.5030335,5.50540033 16.6672507,5.53682412 16.8303775,5.57330666 C17.0615852,5.62432589 17.2901234,5.68676816 17.5151517,5.76040385 C17.8051643,5.85726073 18.0752475,5.97006113 18.3234881,6.10215319 C18.6160517,4.23548596 18.3214154,2.96606295 17.312111,1.81613662 C16.2006882,0.55006176 14.1933992,0.00726464687 11.624659,0.00726464687 L4.1688317,0.00726464687 C3.64389133,0.00726464687 3.19731335,0.389430804 3.11504479,0.90759518 L0.0108415931,20.5944933 C-0.0508598264,20.9833558 0.249755229,21.3344321 0.642603544,21.3344321 L5.24581643,21.3344321 L7.64396087,6.12670621 C7.69182758,5.82326725 7.8858345,5.56276326 8.16284271,5.42997442 Z" id="Path" fill="#27346A"></path>
                    <path d="M18.2471186,6.53876647 C17.2643601,11.5864847 13.9001181,13.3323797 9.60341939,13.3323797 L7.41564968,13.3323797 C6.89078902,13.3323797 6.44747947,13.7146256 6.36592837,14.2328697 L4.92790265,23.3489754 C4.87417299,23.6887318 5.13692219,23.9966012 5.48066446,23.9966012 L9.36051988,23.9966012 C9.81966042,23.9966012 10.2105415,23.6624906 10.2822944,23.2089913 L10.3200806,23.0112917 L11.0513301,18.3768295 L11.0984432,18.1206969 C11.1701914,17.6672274 11.5610277,17.3332487 12.020138,17.333087 L12.600801,17.333087 C16.3592465,17.333087 19.302181,15.8061762 20.1621745,11.3901402 C20.5211428,9.54467787 20.3354008,8.00389617 19.3858048,6.92165008 C19.0977851,6.59385132 18.7400923,6.32313037 18.3234084,6.10215319 C18.3008483,6.24484769 18.276375,6.38945541 18.2471186,6.53876647 L18.2471186,6.53876647 Z" id="Path" fill="#2790C3"></path>
                    <path d="M17.294892,5.69208587 C17.1416585,5.64734002 16.9869733,5.60772486 16.831095,5.57330666 C16.6678826,5.53742077 16.5036769,5.50621185 16.3386794,5.4797182 C15.7481314,5.3841368 15.1030566,5.33901427 14.4103107,5.33901427 L8.56629346,5.33901427 C8.42682418,5.33870029 8.2890992,5.37001753 8.16348045,5.43061216 C7.88613398,5.56300702 7.69195593,5.82370075 7.6445189,6.12734395 L6.40235931,14.003283 L6.36648639,14.2328697 C6.44819693,13.7146256 6.89142677,13.3323797 7.41636714,13.3323797 L9.60413685,13.3323797 C13.9007559,13.3323797 17.2649979,11.5872021 18.2477564,6.53876647 C18.2770127,6.38945541 18.3015658,6.24476797 18.3241258,6.10215319 C18.0752475,5.97077859 17.8058817,5.85726073 17.5157894,5.7610416 C17.4425897,5.73677528 17.3689726,5.71378655 17.2949717,5.69208587" id="Path" fill="#1F264F"></path>
                </g>
            </g>
        </g>
    </g>
</svg>