<svg id="Streamy_Logo" data-name="Streamy Logo" xmlns="http://www.w3.org/2000/svg" xmlns:xlink="http://www.w3.org/1999/xlink" viewBox="0 0 1065 430"><defs><style>.cls-1{fill:url(#linear-gradient);}.cls-2{fill:url(#linear-gradient-2);}.cls-3{fill:url(#linear-gradient-3);}.cls-4{fill:url(#linear-gradient-4);}</style><linearGradient id="linear-gradient" x1="118.52" y1="274.76" x2="187.52" y2="155.24" gradientUnits="userSpaceOnUse"><stop offset="0" stop-color="#d227b2"/><stop offset="0.26" stop-color="#dc3299"/><stop offset="0.81" stop-color="#f64d58"/><stop offset="1" stop-color="#ff5740"/></linearGradient><linearGradient id="linear-gradient-2" x1="155.63" y1="272.83" x2="214.53" y2="170.81" gradientUnits="userSpaceOnUse"><stop offset="0" stop-color="#f8435f"/><stop offset="0.39" stop-color="#fb6048"/><stop offset="1" stop-color="#ff9420"/></linearGradient><linearGradient id="linear-gradient-3" x1="245.64" y1="241.64" x2="268.51" y2="202.02" gradientUnits="userSpaceOnUse"><stop offset="0" stop-color="#ff9420"/><stop offset="0.39" stop-color="#ffad19"/><stop offset="1" stop-color="#fedd0b"/></linearGradient><linearGradient id="linear-gradient-4" x1="200.64" y1="257.23" x2="241.51" y2="186.44" gradientUnits="userSpaceOnUse"><stop offset="0" stop-color="#ff6c40"/><stop offset="0.32" stop-color="#ff8531"/><stop offset="0.99" stop-color="#fec60c"/><stop offset="1" stop-color="#fec70b"/></linearGradient></defs><title>streamy_logo_horizontal_positive_RGB</title><path d="M302.89,253.27l11.53-13.57c10.44,8.94,20.88,14,34.44,14,11.85,0,19.33-5.41,19.33-13.58v-.31c0-7.71-4.36-11.88-24.62-16.51-23.23-5.55-36.32-12.34-36.32-32.25v-.3c0-18.52,15.59-31.33,37.25-31.33,15.9,0,28.52,4.79,39.59,13.58L373.8,187.39c-9.82-7.25-19.64-11.11-29.61-11.11-11.23,0-17.77,5.71-17.77,12.81v.31c0,8.33,5,12,25.87,17,23.06,5.55,35.07,13.73,35.07,31.63v.31c0,20.21-16.06,32.25-39,32.25A67.55,67.55,0,0,1,302.89,253.27Z"/><path d="M409.23,246.49v-42.9H398.79v-16h10.44V165.17h18.86v22.38h22.13v16H428.09v40c0,7.26,3.74,10.19,10.13,10.19A25.57,25.57,0,0,0,449.91,251v15.28a33.31,33.31,0,0,1-17,4.16C419.05,270.4,409.23,264.38,409.23,246.49Z"/><path d="M469.37,187.55h18.85v18.36c5.15-12.19,14.65-20.53,29.15-19.91v19.75h-1.09c-16.52,0-28.06,10.65-28.06,32.25v31H469.37Z"/><path d="M526.55,228.58v-.3c0-23.3,16.67-42.43,40.21-42.43,26.18,0,39.42,20.37,39.42,43.82,0,1.69-.15,3.39-.31,5.25H545.4c2,13.26,11.54,20.67,23.69,20.67,9.2,0,15.74-3.4,22.29-9.72l11.06,9.72c-7.78,9.26-18.54,15.27-33.66,15.27C544.94,270.86,526.55,253.74,526.55,228.58Zm60.93-6c-1.25-12-8.41-21.45-20.88-21.45-11.53,0-19.64,8.8-21.35,21.45Z"/><path d="M674.48,269V259c-5.61,6.64-14.19,11.73-26.65,11.73-15.59,0-29.31-8.8-29.31-25.15v-.31c0-18.05,14.19-26.69,33.36-26.69A70.18,70.18,0,0,1,674.64,222v-1.54c0-11.27-7.18-17.43-20.27-17.43-9.19,0-16,2-23.53,5.09l-5.14-15A71.16,71.16,0,0,1,657,186.31c24.31,0,36.16,12.65,36.16,34.41V269Zm.47-34.09a54.21,54.21,0,0,0-18.86-3.25c-11.85,0-18.86,4.78-18.86,12.65v.31c0,7.72,7,12,15.9,12,12.46,0,21.82-6.94,21.82-17.13Z"/><path d="M715.15,187.55H734v12.34c5.3-7.25,12.47-14,25.09-14,11.85,0,20.11,5.71,24.47,14.35,6.71-8.64,15.43-14.35,27.9-14.35,17.92,0,28.83,11.26,28.83,31.16v52H821.44V222.73c0-13-6.07-19.91-16.67-19.91-10.29,0-17.61,7.1-17.61,20.22v46H768.3V222.57c0-12.65-6.23-19.75-16.68-19.75S734,210.53,734,223.19V269H715.15Z"/><path d="M857.77,289.23l6.39-13.89a23.43,23.43,0,0,0,11.07,3.09c5.29,0,8.56-2.32,11.68-9.42l-34.28-81.46h20.1L896.11,248l21.35-60.48H937.1l-32.73,83.78c-6.55,16.66-13.87,22.83-27.12,22.83A38.77,38.77,0,0,1,857.77,289.23Z"/><path class="cls-1" d="M153,292.35a15,15,0,0,1-15-15V152.73a15,15,0,0,1,15-15.08,14.9,14.9,0,0,1,7.38,2l23.4,13.47A21,21,0,0,0,168,173.43V277.35a15,15,0,0,1-15,15Z"/><path class="cls-2" d="M173.24,283a21.27,21.27,0,0,0,.76-5.65V173.43a15,15,0,0,1,15-15,15.47,15.47,0,0,1,7.13,1.76l23.66,13.71a21.52,21.52,0,0,0-5.28,2.14A21.24,21.24,0,0,0,204,194.31v62.28A15,15,0,0,1,197.4,269Z"/><path class="cls-3" d="M245.24,241.41a21.14,21.14,0,0,0,.76-5.64V215a15,15,0,0,1,22.14-13.21l1.4.84a15.07,15.07,0,0,1-.14,24.83Z"/><path class="cls-4" d="M209.24,262.19a20.9,20.9,0,0,0,.76-5.6V194.31a15,15,0,0,1,15-15.08,14.9,14.9,0,0,1,7.38,2l23.38,13.48A21,21,0,0,0,240,215v20.76a15,15,0,0,1-7.85,13.2Z"/></svg>