<?xml version="1.0" encoding="utf-8"?>
<!-- Generator: Adobe Illustrator 22.1.0, SVG Export Plug-In . SVG Version: 6.00 Build 0)  -->
<svg version="1.1" id="Layer_1" xmlns="http://www.w3.org/2000/svg" xmlns:xlink="http://www.w3.org/1999/xlink" x="0px" y="0px"
	 viewBox="0 0 1015.1 370.7" style="enable-background:new 0 0 1015.1 370.7;" xml:space="preserve">
<style type="text/css">
	.st0{fill:url(#SVGID_1_);}
	.st1{fill:url(#SVGID_2_);}
	.st2{fill:url(#SVGID_3_);}
	.st3{fill:url(#SVGID_4_);}
</style>
<g>
	<g>
		<g>
			<path d="M272.9,223.6l11.5-13.6c10.4,8.9,20.9,14,34.4,14c11.8,0,19.3-5.4,19.3-13.6v-0.3c0-7.7-4.4-11.9-24.6-16.5
				c-23.2-5.6-36.3-12.3-36.3-32.2v-0.3c0-18.5,15.6-31.3,37.2-31.3c15.9,0,28.5,4.8,39.6,13.6l-10.3,14.3
				c-9.8-7.3-19.6-11.1-29.6-11.1c-11.2,0-17.8,5.7-17.8,12.8v0.3c0,8.3,5,12,25.9,17c23.1,5.6,35.1,13.7,35.1,31.6v0.3
				c0,20.2-16.1,32.3-39,32.3C301.7,240.9,286,235.2,272.9,223.6z"/>
			<path d="M379.2,216.8v-42.9h-10.4v-16h10.4v-22.4h18.9v22.4h22.1v16h-22.1v40c0,7.3,3.7,10.2,10.1,10.2c4.2,0,7.9-0.9,11.7-2.8
				v15.3c-4.7,2.6-10,4.2-17,4.2C389.1,240.8,379.2,234.7,379.2,216.8z"/>
			<path d="M439.4,157.9h18.9v18.4c5.1-12.2,14.6-20.5,29.1-19.9v19.7h-1.1c-16.5,0-28.1,10.6-28.1,32.2v31h-18.9V157.9z"/>
			<path d="M496.5,198.9v-0.3c0-23.3,16.7-42.4,40.2-42.4c26.2,0,39.4,20.4,39.4,43.8c0,1.7-0.2,3.4-0.3,5.2h-60.5
				c2,13.3,11.5,20.7,23.7,20.7c9.2,0,15.7-3.4,22.3-9.7l11.1,9.7c-7.8,9.3-18.5,15.3-33.7,15.3
				C514.9,241.2,496.5,224.1,496.5,198.9z M557.5,192.9c-1.2-12-8.4-21.4-20.9-21.4c-11.5,0-19.6,8.8-21.4,21.4H557.5z"/>
			<path d="M644.5,239.4v-10c-5.6,6.6-14.2,11.7-26.7,11.7c-15.6,0-29.3-8.8-29.3-25.1v-0.3c0-18,14.2-26.7,33.4-26.7
				c10,0,16.4,1.4,22.8,3.4v-1.5c0-11.3-7.2-17.4-20.3-17.4c-9.2,0-16,2-23.5,5.1l-5.1-15c9-4,17.9-6.8,31.3-6.8
				c24.3,0,36.2,12.7,36.2,34.4v48.3H644.5z M644.9,205.3c-4.8-1.9-11.5-3.2-18.9-3.2c-11.8,0-18.9,4.8-18.9,12.6v0.3
				c0,7.7,7,12,15.9,12c12.5,0,21.8-6.9,21.8-17.1V205.3z"/>
			<path d="M685.2,157.9H704v12.3c5.3-7.3,12.5-14,25.1-14c11.8,0,20.1,5.7,24.5,14.3c6.7-8.6,15.4-14.3,27.9-14.3
				c17.9,0,28.8,11.3,28.8,31.2v52h-18.9v-46.3c0-13-6.1-19.9-16.7-19.9c-10.3,0-17.6,7.1-17.6,20.2v46h-18.9v-46.4
				c0-12.6-6.2-19.7-16.7-19.7c-10.4,0-17.6,7.7-17.6,20.4v45.8h-18.9V157.9z"/>
			<path d="M827.8,259.6l6.4-13.9c3.4,1.8,7.2,3.1,11.1,3.1c5.3,0,8.6-2.3,11.7-9.4l-34.3-81.5h20.1l23.4,60.5l21.4-60.5h19.6
				l-32.7,83.8c-6.5,16.7-13.9,22.8-27.1,22.8C839.3,264.5,833.5,262.7,827.8,259.6z"/>
		</g>
		<linearGradient id="SVGID_1_" gradientUnits="userSpaceOnUse" x1="88.5201" y1="245.1039" x2="157.5224" y2="125.5884">
			<stop  offset="0" style="stop-color:#9411E2"/>
			<stop  offset="0.3237" style="stop-color:#A217C9"/>
			<stop  offset="1" style="stop-color:#C62789"/>
		</linearGradient>
		<path class="st0" d="M123,262.7c-8.3,0-15-6.7-15-15V123.1c0-5.4,2.9-10.4,7.5-13.1c2.3-1.3,4.9-2,7.5-2c2.6,0,5.1,0.7,7.4,2
			l23.4,13.5c-9.1,2.3-15.8,10.6-15.8,20.3v103.9c0,5.5-3,10.6-7.9,13.2C128,262.1,125.5,262.7,123,262.7z"/>
		<linearGradient id="SVGID_2_" gradientUnits="userSpaceOnUse" x1="125.6289" y1="243.1733" x2="184.5287" y2="141.1559">
			<stop  offset="0" style="stop-color:#F02366"/>
			<stop  offset="0.3142" style="stop-color:#F43C5C"/>
			<stop  offset="0.9806" style="stop-color:#FF7D43"/>
			<stop  offset="1" style="stop-color:#FF7F42"/>
		</linearGradient>
		<path class="st1" d="M143.2,253.3c0.5-1.8,0.8-3.7,0.8-5.6V143.8c0-8.3,6.7-15,15-15c2.5,0,4.9,0.6,7.1,1.8l23.7,13.7
			c-1.8,0.5-3.6,1.2-5.3,2.1c-6.5,3.8-10.5,10.8-10.5,18.3v62.3c0,5-2.5,9.7-6.6,12.5L143.2,253.3z"/>
		<linearGradient id="SVGID_3_" gradientUnits="userSpaceOnUse" x1="215.6369" y1="211.9846" x2="238.5126" y2="172.3625">
			<stop  offset="0" style="stop-color:#FF8140"/>
			<stop  offset="0.3303" style="stop-color:#FF9A31"/>
			<stop  offset="1" style="stop-color:#FED80B"/>
		</linearGradient>
		<path class="st2" d="M215.2,211.8c0.5-1.8,0.8-3.7,0.8-5.6v-20.8c0-8.3,6.7-15,15-15c2.5,0,5,0.6,7.1,1.8l1.4,0.8
			c4,2.7,6.5,7.4,6.5,12.4s-2.5,9.7-6.6,12.5L215.2,211.8z"/>
		<linearGradient id="SVGID_4_" gradientUnits="userSpaceOnUse" x1="170.6418" y1="227.5744" x2="211.5124" y2="156.7844">
			<stop  offset="0" style="stop-color:#FF4161"/>
			<stop  offset="0.2388" style="stop-color:#FF5A50"/>
			<stop  offset="0.7446" style="stop-color:#FE9B23"/>
			<stop  offset="1" style="stop-color:#FEBE0B"/>
		</linearGradient>
		<path class="st3" d="M179.2,232.5c0.5-1.8,0.8-3.7,0.8-5.6v-62.3c0-5.4,2.9-10.4,7.5-13.1c2.3-1.3,4.9-2,7.5-2
			c2.6,0,5.1,0.7,7.4,2l23.4,13.5c-9.1,2.3-15.8,10.6-15.8,20.3v20.8c0,5.5-3,10.6-7.8,13.2L179.2,232.5z"/>
	</g>
</g>
</svg>
