<?xml version="1.0" encoding="UTF-8"?>
<svg width="34px" height="30px" viewBox="0 0 34 30" version="1.1" xmlns="http://www.w3.org/2000/svg" xmlns:xlink="http://www.w3.org/1999/xlink">
    <!-- Generator: sketchtool 63.1 (101010) - https://sketch.com -->
    <title>CB1C7D12-DD5B-423B-8BBF-23562F87A883</title>
    <desc>Created with sketchtool.</desc>
    <g id="Email-Steps" stroke="none" stroke-width="1" fill="none" fill-rule="evenodd">
        <g id="Marketing---Customize---New-Release" transform="translate(-760.000000, -483.000000)" fill="#DC2EA6" fill-rule="nonzero">
            <g id="Sidebar" transform="translate(704.000000, 59.000000)">
                <g id="Artwork" transform="translate(20.000000, 366.000000)">
                    <g id="Thumnail" transform="translate(0.000000, 29.000000)">
                        <g id="Upload-Container" transform="translate(19.000000, 29.000000)">
                            <g id="icon-add-a-photo-pink" transform="translate(17.000000, 0.000000)">
                                <path d="M30.4024765,7.27653291 L25.8699278,7.27653291 L23.2533461,4.44082523 L14.6743896,4.44082523 L14.6743896,7.27653291 L21.9950991,7.27653291 L24.6116809,10.1122406 L30.4024765,10.1122406 L30.4024765,27.1264867 L7.52525915,27.1264867 L7.52525915,14.3658021 L4.66560697,14.3658021 L4.66560697,27.1264867 C4.66560697,28.6861259 5.95245045,29.9621943 7.52525915,29.9621943 L30.4024765,29.9621943 C31.9752852,29.9621943 33.2621287,28.6861259 33.2621287,27.1264867 L33.2621287,10.1122406 C33.2621287,8.55260137 31.9752852,7.27653291 30.4024765,7.27653291 Z M11.8147374,18.6193636 C11.8147374,22.5326402 15.0175478,25.7086328 18.9638678,25.7086328 C22.9101878,25.7086328 26.1129983,22.5326402 26.1129983,18.6193636 C26.1129983,14.706087 22.9101878,11.5300944 18.9638678,11.5300944 C15.0175478,11.5300944 11.8147374,14.706087 11.8147374,18.6193636 Z M18.9638678,14.3658021 C21.3230809,14.3658021 23.2533461,16.2799048 23.2533461,18.6193636 C23.2533461,20.9588225 21.3230809,22.8729251 18.9638678,22.8729251 C16.6046548,22.8729251 14.6743896,20.9588225 14.6743896,18.6193636 C14.6743896,16.2799048 16.6046548,14.3658021 18.9638678,14.3658021 Z M7.52525915,7.27653291 L11.8147374,7.27653291 L11.8147374,4.44082523 L7.52525915,4.44082523 L7.52525915,0.187263715 L4.66560697,0.187263715 L4.66560697,4.44082523 L0.376128713,4.44082523 L0.376128713,7.27653291 L4.66560697,7.27653291 L4.66560697,11.5300944 L7.52525915,11.5300944 L7.52525915,7.27653291 Z" id="Icon-Shape"></path>
                            </g>
                        </g>
                    </g>
                </g>
            </g>
        </g>
    </g>
</svg>