<?xml version="1.0" encoding="UTF-8"?>
<svg width="20px" height="20px" viewBox="0 0 20 20" version="1.1" xmlns="http://www.w3.org/2000/svg" xmlns:xlink="http://www.w3.org/1999/xlink">
    <!-- Generator: sketchtool 63.1 (101010) - https://sketch.com -->
    <title>D8DEE836-A1C9-4D2B-935A-CC4A2FDA93E6</title>
    <desc>Created with sketchtool.</desc>
    <g id="Nav-and-Sign-Up" stroke="none" stroke-width="1" fill="none" fill-rule="evenodd">
        <g id="Nav---Sales" transform="translate(-15.000000, -535.000000)" fill="#FFFFFF" fill-rule="nonzero">
            <g id="Side-Nav---Sales">
                <g id="Nav-Items" transform="translate(0.000000, 72.000000)">
                    <g id="Upgrade" transform="translate(0.000000, 450.000000)">
                        <g id="arrow-alt-circle-up-regular" transform="translate(15.000000, 13.000000)">
                            <path d="M10,20 C15.5241935,20 20,15.5241935 20,10 C20,4.47580645 15.5241935,0 10,0 C4.47580645,0 0,4.47580645 0,10 C0,15.5241935 4.47580645,20 10,20 Z M10,1.93548387 C14.4556452,1.93548387 18.0645161,5.54435484 18.0645161,10 C18.0645161,14.4556452 14.4556452,18.0645161 10,18.0645161 C5.54435484,18.0645161 1.93548387,14.4556452 1.93548387,10 C1.93548387,5.54435484 5.54435484,1.93548387 10,1.93548387 Z M10.8064516,15.1612903 L9.19354839,15.1612903 C8.92741935,15.1612903 8.70967742,14.9435484 8.70967742,14.6774194 L8.70967742,10 L6.00806452,10 C5.5766129,10 5.36290323,9.47983871 5.66532258,9.1733871 L9.65725806,5.18145161 C9.84677419,4.99193548 10.1532258,4.99193548 10.3427419,5.18145161 L14.3346774,9.1733871 C14.641129,9.47983871 14.4233871,10 13.9919355,10 L11.2903226,10 L11.2903226,14.6774194 C11.2903226,14.9435484 11.0725806,15.1612903 10.8064516,15.1612903 Z" id="Shape"></path>
                        </g>
                    </g>
                </g>
            </g>
        </g>
    </g>
</svg>