<?xml version="1.0" encoding="UTF-8"?>
<svg width="19px" height="18px" viewBox="0 0 19 18" version="1.1" xmlns="http://www.w3.org/2000/svg" xmlns:xlink="http://www.w3.org/1999/xlink">
    <!-- Generator: sketchtool 63.1 (101010) - https://sketch.com -->
    <title>F27F314D-F7B8-45E4-9020-428A609FFE4E</title>
    <desc>Created with sketchtool.</desc>
    <g id="Page-1" stroke="none" stroke-width="1" fill="none" fill-rule="evenodd">
        <g id="Account-Settings---Payouts-V2" transform="translate(-204.000000, -419.000000)" fill="#FFFFFF" fill-rule="nonzero">
            <g id="Bank" transform="translate(169.000000, 313.000000)">
                <g id="Connect-Bank-Btn" transform="translate(0.000000, 92.000000)">
                    <g id="icon-bank" transform="translate(35.000000, 14.000000)">
                        <path d="M18.7826087,3.75653236 L18.7826087,4.38261931 C18.7826087,4.55550845 18.6424544,4.69566279 18.4695652,4.69566279 L17.5304348,4.69566279 L17.5304348,5.16522801 C17.5304348,5.4245454 17.320187,5.63479323 17.0608696,5.63479323 L1.72173913,5.63479323 C1.46242174,5.63479323 1.25217391,5.4245454 1.25217391,5.16522801 L1.25217391,4.69566279 L0.313043478,4.69566279 C0.140154339,4.69566279 0,4.55550845 0,4.38261931 L0,3.75653236 C0,3.62988087 0.0763165914,3.51570854 0.193343478,3.46728018 L9.27160435,0.0238019213 C9.34824906,-0.00793397378 9.43435963,-0.00793397378 9.51100435,0.0238019213 L18.5892652,3.46728018 C18.7062921,3.51570854 18.7826087,3.62988087 18.7826087,3.75653236 Z M17.8434783,15.6521845 L0.939130435,15.6521845 C0.420456522,15.6521845 0,16.0726411 0,16.591315 L0,17.2174019 C0,17.3902911 0.140154339,17.5304454 0.313043478,17.5304454 L18.4695652,17.5304454 C18.6424544,17.5304454 18.7826087,17.3902911 18.7826087,17.2174019 L18.7826087,16.591315 C18.7826087,16.0726411 18.3621522,15.6521845 17.8434783,15.6521845 Z M3.13043478,6.26088018 L3.13043478,13.7739237 L1.72173913,13.7739237 C1.46242174,13.7739237 1.25217391,13.9841715 1.25217391,14.2434889 L1.25217391,15.0260976 L17.5304348,15.0260976 L17.5304348,14.2434889 C17.5304348,13.9841715 17.320187,13.7739237 17.0608696,13.7739237 L15.6521739,13.7739237 L15.6521739,6.26088018 L13.1478261,6.26088018 L13.1478261,13.7739237 L10.6434783,13.7739237 L10.6434783,6.26088018 L8.13913043,6.26088018 L8.13913043,13.7739237 L5.63478261,13.7739237 L5.63478261,6.26088018 L3.13043478,6.26088018 Z" id="Shape"></path>
                    </g>
                </g>
            </g>
        </g>
    </g>
</svg>