<?xml version="1.0" encoding="UTF-8"?>
<svg width="25px" height="20px" viewBox="0 0 25 20" version="1.1" xmlns="http://www.w3.org/2000/svg" xmlns:xlink="http://www.w3.org/1999/xlink">
    <!-- Generator: sketchtool 63.1 (101010) - https://sketch.com -->
    <title>5DE98AB3-C5D6-4D29-BDC0-AF2CA6B0BB07</title>
    <desc>Created with sketchtool.</desc>
    <defs>
        <path d="M24.6153846,7.86331624 L24.6153846,8.54707692 C24.6153846,9.11353162 24.1561983,9.57270427 23.5897436,9.57270427 L23.2478632,9.57270427 L22.1319248,17.3841094 C21.9875692,18.3946667 21.1220923,19.1452991 20.1012786,19.1452991 L4.51410598,19.1452991 C3.49329231,19.1452991 2.62781538,18.3946667 2.4834188,17.3841094 L1.36752137,9.57270427 L1.02564103,9.57270427 C0.459186325,9.57270427 0,9.11353162 0,8.54707692 L0,7.86331624 C0,7.29687521 0.459186325,6.83768889 1.02564103,6.83768889 L3.90346667,6.83768889 L8.46670769,0.563323077 C8.91093333,-0.0474393162 9.76615385,-0.182523077 10.377012,0.261702564 C10.9878154,0.705928205 11.1228581,1.56117607 10.6786325,2.17199316 L7.28534701,6.83768889 L17.3300376,6.83768889 L13.9367521,2.17193846 C13.4925265,1.56117607 13.6276103,0.705887179 14.2384137,0.261661538 C14.8491487,-0.182564103 15.7044923,-0.0475213675 16.1487179,0.563282051 L20.7119179,6.83768889 L23.5897436,6.83768889 C24.1561983,6.83768889 24.6153846,7.29687521 24.6153846,7.86331624 Z M13.3333333,15.3846427 L13.3333333,10.5983453 C13.3333333,10.0318906 12.874147,9.57270427 12.3076923,9.57270427 C11.7412376,9.57270427 11.2820513,10.0318906 11.2820513,10.5983453 L11.2820513,15.3846427 C11.2820513,15.9510838 11.7412376,16.4102701 12.3076923,16.4102701 C12.874147,16.4102701 13.3333333,15.9510838 13.3333333,15.3846427 Z M18.1196581,15.3846427 L18.1196581,10.5983453 C18.1196581,10.0318906 17.6604718,9.57270427 17.0940171,9.57270427 C16.5275624,9.57270427 16.0683761,10.0318906 16.0683761,10.5983453 L16.0683761,15.3846427 C16.0683761,15.9510838 16.5275624,16.4102701 17.0940171,16.4102701 C17.6604718,16.4102701 18.1196581,15.9510838 18.1196581,15.3846427 Z M8.54700855,15.3846427 L8.54700855,10.5983453 C8.54700855,10.0318906 8.08782222,9.57270427 7.52136752,9.57270427 C6.95491282,9.57270427 6.4957265,10.0318906 6.4957265,10.5983453 L6.4957265,15.3846427 C6.4957265,15.9510838 6.95491282,16.4102701 7.52136752,16.4102701 C8.08782222,16.4102701 8.54700855,15.9510838 8.54700855,15.3846427 Z" id="path-1"></path>
    </defs>
    <g id="Final" stroke="none" stroke-width="1" fill="none" fill-rule="evenodd">
        <g id="Profile---Beats---Centered" transform="translate(-979.000000, -31.000000)">
            <g id="Top-Nav">
                <g id="icon-basket" transform="translate(979.000000, 31.000000)">
                    <mask id="mask-2" fill="white">
                        <use xlink:href="#path-1"></use>
                    </mask>
                    <g id="Clip-5"></g>
                    <polygon id="Fill-4" fill="#FFFFFF" mask="url(#mask-2)" points="-6.83760684 25.982906 31.4529915 25.982906 31.4529915 -6.83760684 -6.83760684 -6.83760684"></polygon>
                </g>
            </g>
        </g>
    </g>
</svg>