<?xml version="1.0" encoding="UTF-8"?>
<svg width="18px" height="16px" viewBox="0 0 18 16" version="1.1" xmlns="http://www.w3.org/2000/svg" xmlns:xlink="http://www.w3.org/1999/xlink">
    <!-- Generator: sketchtool 63.1 (101010) - https://sketch.com -->
    <title>0C4607CD-05F1-43B8-B97E-C93E040B0DED</title>
    <desc>Created with sketchtool.</desc>
    <g id="Nav-and-Sign-Up" stroke="none" stroke-width="1" fill="none" fill-rule="evenodd">
        <g id="Nav---Marketing---Messages" transform="translate(-19.000000, -357.000000)" fill="#FDD311" fill-rule="nonzero">
            <g id="Side-Nav---Marketing---Messages">
                <g id="Nav-Items" transform="translate(0.000000, 72.000000)">
                    <g id="Marketing---Open" transform="translate(-0.000000, 270.000000)">
                        <g id="bullhorn-solid-active" transform="translate(19.000000, 15.000000)">
                            <path d="M18,7.5 C18,6.7615625 17.5953125,6.12375 17,5.7775 L17,1.0003125 C17,0.726875 16.781875,0 16,0 C15.7775,0 15.5565625,0.074375 15.375625,0.219375 L12.7184375,2.3453125 C11.38375,3.4121875 9.708125,4 8,4 L2,4 C0.8953125,4 0,4.8953125 0,6 L0,9 C0,10.1046875 0.8953125,11 2,11 L3.053125,11 C3.0096875,11.3275 2.985,11.660625 2.985,12 C2.985,13.2428125 3.274375,14.4171875 3.78375,15.466875 C3.9459375,15.8009375 4.3,16 4.67125,16 L6.9925,16 C7.8065625,16 8.2953125,15.0675 7.801875,14.42 C7.289375,13.7475 6.9846875,12.90875 6.9846875,12 C6.9846875,11.6528125 7.0353125,11.3190625 7.1225,11 L8,11 C9.708125,11 11.38375,11.5878125 12.718125,12.6546875 L15.3753125,14.780625 C15.5525355,14.9224437 15.7727062,14.999801 15.9996875,15 C16.7784375,15 16.9996875,14.288125 16.9996875,14 L16.9996875,9.2228125 C17.5953125,8.87625 18,8.2384375 18,7.5 Z M15,11.919375 L13.9671875,11.093125 C12.2796875,9.743125 10.16,9 8,9 L8,6 C10.16,6 12.2796875,5.256875 13.9671875,3.906875 L15,3.080625 L15,11.919375 Z" id="Shape"></path>
                        </g>
                    </g>
                </g>
            </g>
        </g>
    </g>
</svg>