<?xml version="1.0" encoding="UTF-8"?>
<svg width="35px" height="35px" viewBox="0 0 35 35" version="1.1" xmlns="http://www.w3.org/2000/svg" xmlns:xlink="http://www.w3.org/1999/xlink">
    <!-- Generator: sketchtool 63.1 (101010) - https://sketch.com -->
    <title>E434299F-EEF5-4E56-89DD-09C9115A9106</title>
    <desc>Created with sketchtool.</desc>
    <g id="Page-1" stroke="none" stroke-width="1" fill="none" fill-rule="evenodd">
        <g id="Edit-Video-Information" transform="translate(-19.000000, -675.000000)">
            <g id="Video-1" transform="translate(10.000000, 270.000000)">
                <g id="Group">
                    <g id="Bottom-Buttons" transform="translate(9.000000, 390.000000)">
                        <g id="Buttons" transform="translate(0.000000, 15.000000)">
                            <g id="icon-schedule">
                                <rect id="Rectangle-Copy" fill="#F2F2F2" x="0" y="0" width="35" height="35" rx="17.5"></rect>
                                <g id="ic-sharp-schedule" transform="translate(7.000000, 6.000000)" fill-rule="nonzero">
                                    <g id="Icon" fill="#000000">
                                        <path d="M10.9908333,1.83333333 C5.93083333,1.83333333 1.83333333,5.94 1.83333333,11 C1.83333333,16.06 5.93083333,20.1666667 10.9908333,20.1666667 C16.06,20.1666667 20.1666667,16.06 20.1666667,11 C20.1666667,5.94 16.06,1.83333333 10.9908333,1.83333333 Z M11,18.3333333 C6.94833333,18.3333333 3.66666667,15.0516667 3.66666667,11 C3.66666667,6.94833333 6.94833333,3.66666667 11,3.66666667 C15.0516667,3.66666667 18.3333333,6.94833333 18.3333333,11 C18.3333333,15.0516667 15.0516667,18.3333333 11,18.3333333 Z M11.4583333,6.41666667 L10.0833333,6.41666667 L10.0833333,11.9166667 L14.8958333,14.8041667 L15.5833333,13.6766667 L11.4583333,11.2291667 L11.4583333,6.41666667 Z" id="Icon-Shape"></path>
                                    </g>
                                    <rect id="ViewBox" x="0" y="0" width="22" height="22"></rect>
                                </g>
                            </g>
                        </g>
                    </g>
                </g>
            </g>
        </g>
    </g>
</svg>