<?xml version="1.0" encoding="UTF-8"?>
<svg width="11px" height="18px" viewBox="0 0 11 18" version="1.1" xmlns="http://www.w3.org/2000/svg" xmlns:xlink="http://www.w3.org/1999/xlink">
    <!-- Generator: sketchtool 63.1 (101010) - https://sketch.com -->
    <title>368DA717-4381-4A01-AF08-60C1FC237AF0</title>
    <desc>Created with sketchtool.</desc>
    <g id="Nav-and-Sign-Up" stroke="none" stroke-width="1" fill="none" fill-rule="evenodd">
        <g id="Nav---Sales" transform="translate(-23.000000, -132.000000)" fill="#FDD311" fill-rule="nonzero">
            <g id="Side-Nav---Sales">
                <g id="Nav-Items" transform="translate(0.000000, 72.000000)">
                    <g id="Sales" transform="translate(-0.000000, 45.000000)">
                        <g id="dollar-sign-solid-active" transform="translate(23.000000, 15.000000)">
                            <path d="M7.3546875,8.20546875 L3.5578125,7.09453125 C3.11835938,6.96796875 2.8125,6.55664062 2.8125,6.09960938 C2.8125,5.5265625 3.2765625,5.0625 3.84960938,5.0625 L6.18046875,5.0625 C6.609375,5.0625 7.03125,5.19257812 7.3828125,5.43164062 C7.59726563,5.57578125 7.88554688,5.540625 8.06835938,5.36132812 L9.29179688,4.16601562 C9.54140625,3.9234375 9.50625,3.51914062 9.22851563,3.3046875 C8.3671875,2.6296875 7.29140625,2.25351562 6.1875,2.25 L6.1875,0.5625 C6.1875,0.253125 5.934375,0 5.625,0 L4.5,0 C4.190625,0 3.9375,0.253125 3.9375,0.5625 L3.9375,2.25 L3.84960938,2.25 C1.61015625,2.25 -0.18984375,4.17304687 0.017578125,6.4546875 C0.165234375,8.07539062 1.40273438,9.39375 2.96367188,9.85078125 L6.5671875,10.9054687 C7.00664063,11.0355469 7.3125,11.4433594 7.3125,11.9003906 C7.3125,12.4734375 6.8484375,12.9375 6.27539063,12.9375 L3.94453125,12.9375 C3.515625,12.9375 3.09375,12.8074219 2.7421875,12.5683594 C2.52773438,12.4242187 2.23945313,12.459375 2.05664063,12.6386719 L0.833203125,13.8339844 C0.58359375,14.0765625 0.61875,14.4808594 0.896484375,14.6953125 C1.7578125,15.3703125 2.83359375,15.7464844 3.9375,15.75 L3.9375,17.4375 C3.9375,17.746875 4.190625,18 4.5,18 L5.625,18 C5.934375,18 6.1875,17.746875 6.1875,17.4375 L6.1875,15.7429688 C7.82578125,15.7113281 9.36210938,14.7375 9.90351563,13.1871094 C10.659375,11.0214844 9.39023438,8.79960938 7.3546875,8.20546875 Z" id="Path"></path>
                        </g>
                    </g>
                </g>
            </g>
        </g>
    </g>
</svg>