<?xml version="1.0" encoding="UTF-8"?>
<svg width="14px" height="24px" viewBox="0 0 14 24" version="1.1" xmlns="http://www.w3.org/2000/svg" xmlns:xlink="http://www.w3.org/1999/xlink">
    <!-- Generator: sketchtool 63.1 (101010) - https://sketch.com -->
    <title>0E589784-9BD1-45DA-9790-9A9E670BD239</title>
    <desc>Created with sketchtool.</desc>
    <g id="Established-Store" stroke="none" stroke-width="1" fill="none" fill-rule="evenodd">
        <g id="Dashboard-Home---Returning-User" transform="translate(-308.000000, -300.000000)" fill="#2DBD9B" fill-rule="nonzero">
            <g id="Recent-sales" transform="translate(288.000000, 282.000000)">
                <g id="dollar-sign-solid" transform="translate(20.000000, 18.000000)">
                    <path d="M9.80625,10.940625 L4.74375,9.459375 C4.1578125,9.290625 3.75,8.7421875 3.75,8.1328125 C3.75,7.36875 4.36875,6.75 5.1328125,6.75 L8.240625,6.75 C8.8125,6.75 9.375,6.9234375 9.84375,7.2421875 C10.1296875,7.434375 10.5140625,7.3875 10.7578125,7.1484375 L12.3890625,5.5546875 C12.721875,5.23125 12.675,4.6921875 12.3046875,4.40625 C11.15625,3.50625 9.721875,3.0046875 8.25,3 L8.25,0.75 C8.25,0.3375 7.9125,0 7.5,0 L6,0 C5.5875,0 5.25,0.3375 5.25,0.75 L5.25,3 L5.1328125,3 C2.146875,3 -0.253125,5.5640625 0.0234375,8.60625 C0.2203125,10.7671875 1.8703125,12.525 3.9515625,13.134375 L8.75625,14.540625 C9.3421875,14.7140625 9.75,15.2578125 9.75,15.8671875 C9.75,16.63125 9.13125,17.25 8.3671875,17.25 L5.259375,17.25 C4.6875,17.25 4.125,17.0765625 3.65625,16.7578125 C3.3703125,16.565625 2.9859375,16.6125 2.7421875,16.8515625 L1.1109375,18.4453125 C0.778125,18.76875 0.825,19.3078125 1.1953125,19.59375 C2.34375,20.49375 3.778125,20.9953125 5.25,21 L5.25,23.25 C5.25,23.6625 5.5875,24 6,24 L7.5,24 C7.9125,24 8.25,23.6625 8.25,23.25 L8.25,20.990625 C10.434375,20.9484375 12.4828125,19.65 13.2046875,17.5828125 C14.2125,14.6953125 12.5203125,11.7328125 9.80625,10.940625 Z" id="Path"></path>
                </g>
            </g>
        </g>
    </g>
</svg>