<?xml version="1.0" encoding="UTF-8"?>
<svg width="41px" height="40px" viewBox="0 0 41 40" version="1.1" xmlns="http://www.w3.org/2000/svg" xmlns:xlink="http://www.w3.org/1999/xlink">
    <!-- Generator: sketchtool 63.1 (101010) - https://sketch.com -->
    <title>DDF1CBBD-E258-4337-99FB-8BEE9BE08E2B</title>
    <desc>Created with sketchtool.</desc>
    <g id="Landing-Pages" stroke="none" stroke-width="1" fill="none" fill-rule="evenodd">
        <g id="Marketing---Landing-Page---Email-Capture---Customize" transform="translate(-575.000000, -10.000000)">
            <g id="Top-Nav">
                <g id="Group" transform="translate(409.000000, 10.000000)">
                    <g id="icon-edit" transform="translate(166.500000, 0.000000)">
                        <g id="ic-baseline-edit" transform="translate(10.400000, 10.400000)" fill-rule="nonzero">
                            <g id="Icon" fill="#FFFFFF">
                                <path d="M2.4,13.8 L2.4,16.8 L5.4,16.8 L14.248,7.952 L11.248,4.952 L2.4,13.8 Z M16.568,5.632 C16.7177825,5.48252432 16.8019552,5.27960758 16.8019552,5.068 C16.8019552,4.85639242 16.7177825,4.65347568 16.568,4.504 L14.696,2.632 C14.5465243,2.48221753 14.3436076,2.39804477 14.132,2.39804477 C13.9203924,2.39804477 13.7174757,2.48221753 13.568,2.632 L12.104,4.096 L15.104,7.096 L16.568,5.632 Z" id="Icon-Shape"></path>
                            </g>
                            <rect id="ViewBox" x="0" y="0" width="19.2" height="19.2"></rect>
                        </g>
                    </g>
                </g>
            </g>
        </g>
    </g>
</svg>