<?xml version="1.0" encoding="UTF-8"?>
<svg width="48px" height="48px" viewBox="0 0 48 48" version="1.1" xmlns="http://www.w3.org/2000/svg" xmlns:xlink="http://www.w3.org/1999/xlink">
    <!-- Generator: sketchtool 63.1 (101010) - https://sketch.com -->
    <title>FDDE4A29-9DEA-4261-9F93-EFAFA31766AB</title>
    <desc>Created with sketchtool.</desc>
    <g id="Final" stroke="none" stroke-width="1" fill="none" fill-rule="evenodd">
        <g id="Profile---Beats---Sign-Up-Modal" transform="translate(-351.000000, -377.000000)" fill="#DC2EA6" fill-rule="nonzero">
            <g id="Modal" transform="translate(212.000000, 258.000000)">
                <g id="Email" transform="translate(30.000000, 74.000000)">
                    <g id="Content" transform="translate(38.000000, 45.000000)">
                        <g id="equalizer" transform="translate(71.000000, 0.000000)">
                            <path d="M20.2580645,48 L14.5806452,48 C13.7967828,48 13.1612903,47.3783226 13.1612903,46.6115007 L13.1612903,40.8723703 C13.1612903,40.1055484 13.7967828,39.483871 14.5806452,39.483871 L20.2580645,39.483871 C21.0419269,39.483871 21.6774194,40.1055484 21.6774194,40.8723703 L21.6774194,46.6115007 C21.6774194,47.3783226 21.0419269,48 20.2580645,48 Z" id="Path"></path>
                            <path d="M33.4193548,48 L27.7419355,48 C26.9580731,48 26.3225806,47.3735562 26.3225806,46.600855 L26.3225806,18.431403 C26.3225806,17.6587019 26.9580731,17.0322581 27.7419355,17.0322581 L33.4193548,17.0322581 C34.2032172,17.0322581 34.8387097,17.6587019 34.8387097,18.431403 L34.8387097,46.600855 C34.8387097,47.3735562 34.2032172,48 33.4193548,48 Z" id="Path"></path>
                            <path d="M33.4193548,8.51612903 L27.7419355,8.51612903 C26.9580731,8.51612903 26.3225806,7.82286452 26.3225806,6.96774194 C26.3225806,6.11261935 26.9580731,5.41935484 27.7419355,5.41935484 L33.4193548,5.41935484 C34.2032172,5.41935484 34.8387097,6.11261935 34.8387097,6.96774194 C34.8387097,7.82286452 34.2032172,8.51612903 33.4193548,8.51612903 Z" id="Path"></path>
                            <path d="M33.4193548,3.09677419 L27.7419355,3.09677419 C26.9580731,3.09677419 26.3225806,2.40350968 26.3225806,1.5483871 C26.3225806,0.693264516 26.9580731,0 27.7419355,0 L33.4193548,0 C34.2032172,0 34.8387097,0.693264516 34.8387097,1.5483871 C34.8387097,2.40350968 34.2032172,3.09677419 33.4193548,3.09677419 Z" id="Path"></path>
                            <path d="M20.2580645,30.9677419 L14.5806452,30.9677419 C13.7967828,30.9677419 13.1612903,30.2744774 13.1612903,29.4193548 C13.1612903,28.5642323 13.7967828,27.8709677 14.5806452,27.8709677 L20.2580645,27.8709677 C21.0419269,27.8709677 21.6774194,28.5642323 21.6774194,29.4193548 C21.6774194,30.2744774 21.0419269,30.9677419 20.2580645,30.9677419 Z" id="Path"></path>
                            <path d="M7.09677419,25.5483871 L1.41935484,25.5483871 C0.635492473,25.5483871 0,24.8551226 0,24 C0,23.1448774 0.635492473,22.4516129 1.41935484,22.4516129 L7.09677419,22.4516129 C7.88063656,22.4516129 8.51612903,23.1448774 8.51612903,24 C8.51612903,24.8551226 7.88063656,25.5483871 7.09677419,25.5483871 Z" id="Path"></path>
                            <path d="M20.2580645,36.3870968 L14.5806452,36.3870968 C13.7967828,36.3870968 13.1612903,35.6938323 13.1612903,34.8387097 C13.1612903,33.9835871 13.7967828,33.2903226 14.5806452,33.2903226 L20.2580645,33.2903226 C21.0419269,33.2903226 21.6774194,33.9835871 21.6774194,34.8387097 C21.6774194,35.6938323 21.0419269,36.3870968 20.2580645,36.3870968 Z" id="Path"></path>
                            <path d="M20.2580645,25.5483871 L14.5806452,25.5483871 C13.7967828,25.5483871 13.1612903,24.8551226 13.1612903,24 C13.1612903,23.1448774 13.7967828,22.4516129 14.5806452,22.4516129 L20.2580645,22.4516129 C21.0419269,22.4516129 21.6774194,23.1448774 21.6774194,24 C21.6774194,24.8551226 21.0419269,25.5483871 20.2580645,25.5483871 Z" id="Path"></path>
                            <path d="M20.2580645,20.1290323 L14.5806452,20.1290323 C13.7967828,20.1290323 13.1612903,19.4357677 13.1612903,18.5806452 C13.1612903,17.7255226 13.7967828,17.0322581 14.5806452,17.0322581 L20.2580645,17.0322581 C21.0419269,17.0322581 21.6774194,17.7255226 21.6774194,18.5806452 C21.6774194,19.4357677 21.0419269,20.1290323 20.2580645,20.1290323 Z" id="Path"></path>
                            <path d="M7.09677419,20.1290323 L1.41935484,20.1290323 C0.635492473,20.1290323 0,19.4357677 0,18.5806452 C0,17.7255226 0.635492473,17.0322581 1.41935484,17.0322581 L7.09677419,17.0322581 C7.88063656,17.0322581 8.51612903,17.7255226 8.51612903,18.5806452 C8.51612903,19.4357677 7.88063656,20.1290323 7.09677419,20.1290323 Z" id="Path"></path>
                            <path d="M7.09677419,13.9354839 L1.41935484,13.9354839 C0.635492473,13.9354839 0,13.2422194 0,12.3870968 C0,11.5319742 0.635492473,10.8387097 1.41935484,10.8387097 L7.09677419,10.8387097 C7.88063656,10.8387097 8.51612903,11.5319742 8.51612903,12.3870968 C8.51612903,13.2422194 7.88063656,13.9354839 7.09677419,13.9354839 Z" id="Path"></path>
                            <path d="M46.5806452,20.1290323 L40.9032258,20.1290323 C40.1193634,20.1290323 39.483871,19.4357677 39.483871,18.5806452 C39.483871,17.7255226 40.1193634,17.0322581 40.9032258,17.0322581 L46.5806452,17.0322581 C47.3645075,17.0322581 48,17.7255226 48,18.5806452 C48,19.4357677 47.3645075,20.1290323 46.5806452,20.1290323 Z" id="Path"></path>
                            <path d="M46.5806452,13.9354839 L40.9032258,13.9354839 C40.1193634,13.9354839 39.483871,13.2422194 39.483871,12.3870968 C39.483871,11.5319742 40.1193634,10.8387097 40.9032258,10.8387097 L46.5806452,10.8387097 C47.3645075,10.8387097 48,11.5319742 48,12.3870968 C48,13.2422194 47.3645075,13.9354839 46.5806452,13.9354839 Z" id="Path"></path>
                            <path d="M33.4193548,13.9354839 L27.7419355,13.9354839 C26.9580731,13.9354839 26.3225806,13.2422194 26.3225806,12.3870968 C26.3225806,11.5319742 26.9580731,10.8387097 27.7419355,10.8387097 L33.4193548,10.8387097 C34.2032172,10.8387097 34.8387097,11.5319742 34.8387097,12.3870968 C34.8387097,13.2422194 34.2032172,13.9354839 33.4193548,13.9354839 Z" id="Path"></path>
                            <path d="M7.09677419,48 L1.41935484,48 C0.635492473,48 0,47.3623274 0,46.575776 L0,29.2951917 C0,28.5086403 0.635492473,27.8709677 1.41935484,27.8709677 L7.09677419,27.8709677 C7.88063656,27.8709677 8.51612903,28.5086403 8.51612903,29.2951917 L8.51612903,46.575776 C8.51612903,47.3623274 7.88063656,48 7.09677419,48 Z" id="Path"></path>
                            <path d="M46.0967742,47.5483871 L40.4193548,47.5483871 C39.6354925,47.5483871 39,46.9175674 39,46.1394687 L39,23.4089184 C39,22.6308197 39.6354925,22 40.4193548,22 L46.0967742,22 C46.8806366,22 47.516129,22.6308197 47.516129,23.4089184 L47.516129,46.1394687 C47.516129,46.9175674 46.8806366,47.5483871 46.0967742,47.5483871 Z" id="Path"></path>
                        </g>
                    </g>
                </g>
            </g>
        </g>
    </g>
</svg>