<?xml version="1.0" encoding="UTF-8"?>
<svg width="48px" height="42px" viewBox="0 0 48 42" version="1.1" xmlns="http://www.w3.org/2000/svg" xmlns:xlink="http://www.w3.org/1999/xlink">
    <!-- Generator: sketchtool 63.1 (101010) - https://sketch.com -->
    <title>971F72A9-27EF-422C-8473-80A2235AEAB2</title>
    <desc>Created with sketchtool.</desc>
    <g id="Final" stroke="none" stroke-width="1" fill="none" fill-rule="evenodd">
        <g id="Profile---Beats---Sign-Up-Modal" transform="translate(-627.000000, -380.000000)" fill-rule="nonzero">
            <g id="Modal" transform="translate(212.000000, 258.000000)">
                <g id="SMS-Message" transform="translate(306.000000, 74.000000)">
                    <g id="Content" transform="translate(29.000000, 45.000000)">
                        <g id="fa-solid:headphones" transform="translate(80.000000, 0.000000)">
                            <g id="Icon" transform="translate(0.000000, 2.886957)" fill="#DC2EA6">
                                <path d="M24,0.113043478 C10.73625,0.113043478 0,10.8470435 0,24.1130435 L0,28.6130435 C0,29.7493674 0.641987708,30.7881706 1.65834375,31.296356 L3.00675,31.9705122 C3.19528125,37.6039497 7.82071875,42.1130435 13.5,42.1130435 L15.75,42.1130435 C16.9926563,42.1130435 18,41.1056997 18,39.8630435 L18,23.3630435 C18,22.1203872 16.9926563,21.1130435 15.75,21.1130435 L13.5,21.1130435 C10.5616875,21.1130435 7.90584375,22.3204497 6,24.2655747 L6,24.1130435 C6,14.1878247 14.0747813,6.11304348 24,6.11304348 C33.9252188,6.11304348 42,14.1878247 42,24.1130435 L42,24.2655747 C40.0941563,22.3204497 37.4383125,21.1130435 34.5,21.1130435 L32.25,21.1130435 C31.0073438,21.1130435 30,22.1203872 30,23.3630435 L30,39.8630435 C30,41.1056997 31.0073438,42.1130435 32.25,42.1130435 L34.5,42.1130435 C40.1792813,42.1130435 44.8047188,37.603856 44.99325,31.9705122 L46.3415625,31.296356 C47.357955,30.7881968 48,29.7493882 48,28.6130435 L48,24.1130435 C48,10.8493872 37.266,0.113043478 24,0.113043478 Z" id="Icon-Path"></path>
                            </g>
                            <rect id="ViewBox" x="0" y="0" width="48" height="48"></rect>
                        </g>
                    </g>
                </g>
            </g>
        </g>
    </g>
</svg>