<?xml version="1.0" encoding="UTF-8"?>
<svg width="16px" height="16px" viewBox="0 0 16 16" version="1.1" xmlns="http://www.w3.org/2000/svg" xmlns:xlink="http://www.w3.org/1999/xlink">
    <!-- Generator: sketchtool 63.1 (101010) - https://sketch.com -->
    <title>0CF17B4C-92DF-4CD6-BABB-CEDE9AE5F992</title>
    <desc>Created with sketchtool.</desc>
    <g id="Nav-and-Sign-Up" stroke="none" stroke-width="1" fill="none" fill-rule="evenodd">
        <g id="Nav---Sales" transform="translate(-17.000000, -492.000000)" fill-rule="nonzero">
            <g id="Side-Nav---Sales">
                <g id="Nav-Items" transform="translate(0.000000, 72.000000)">
                    <g id="Settings" transform="translate(0.000000, 405.000000)">
                        <g id="ic-settings" transform="translate(15.000000, 13.000000)">
                            <g>
                                <g id="Icon" fill="#FDD311">
                                    <path d="M15.95,10.78 C15.98,10.53 16,10.27 16,10 C16,9.73 15.98,9.47 15.94,9.22 L17.63,7.9 C17.7794077,7.77483967 17.8210793,7.56231465 17.73,7.39 L16.13,4.62 C16.03,4.44 15.82,4.38 15.64,4.44 L13.65,5.24 C13.2367626,4.92101243 12.7827427,4.65868984 12.3,4.46 L12,2.34 C11.9700922,2.14278478 11.7994573,1.99774513 11.6,1.99997407 L8.4,1.99997407 C8.20257536,1.99799652 8.03493342,2.1441459 8.01,2.34 L7.71,4.46 C7.22807021,4.66033868 6.77425983,4.92254023 6.36,5.24 L4.37,4.44 C4.18463925,4.36854011 3.9750235,4.44554182 3.88,4.62 L2.28,7.39 C2.17749387,7.56046866 2.22070868,7.78086418 2.38,7.9 L4.07,9.22 C4.03,9.47 4,9.74 4,10 C4,10.26 4.02,10.53 4.06,10.78 L2.37,12.1 C2.22059226,12.2251603 2.17892068,12.4376853 2.27,12.61 L3.87,15.38 C3.97,15.56 4.18,15.62 4.36,15.56 L6.35,14.76 C6.76323738,15.0789876 7.21725726,15.3413102 7.7,15.54 L8,17.66 C8.04,17.86 8.2,18 8.4,18 L11.6,18 C11.8,18 11.97,17.86 11.99,17.66 L12.29,15.54 C12.7719298,15.3396613 13.2257402,15.0774598 13.64,14.76 L15.63,15.56 C15.81,15.63 16.02,15.56 16.12,15.38 L17.72,12.61 C17.8225061,12.4395313 17.7792913,12.2191358 17.62,12.1 L15.95,10.78 L15.95,10.78 Z M10,13 C8.35,13 7,11.65 7,10 C7,8.35 8.35,7 10,7 C11.65,7 13,8.35 13,10 C13,11.65 11.65,13 10,13 Z" id="Icon-Shape"></path>
                                </g>
                                <rect id="ViewBox" x="0" y="0" width="20" height="20"></rect>
                            </g>
                        </g>
                    </g>
                </g>
            </g>
        </g>
    </g>
</svg>