<?xml version="1.0" encoding="UTF-8"?>
<svg width="16px" height="16px" viewBox="0 0 16 16" version="1.1" xmlns="http://www.w3.org/2000/svg" xmlns:xlink="http://www.w3.org/1999/xlink">
    <!-- Generator: sketchtool 63.1 (101010) - https://sketch.com -->
    <title>2DEF8C4B-CA1C-4951-8FBF-2D6DA4EB070F</title>
    <desc>Created with sketchtool.</desc>
    <g id="Page-1" stroke="none" stroke-width="1" fill="none" fill-rule="evenodd">
        <g id="Nav---Marketing---Home" transform="translate(-21.000000, -132.000000)" fill-rule="nonzero">
            <g id="Side-Nav---Home">
                <g id="Nav-Items" transform="translate(0.000000, 20.000000)">
                    <g id="Tracks" transform="translate(-0.000000, 97.000000)">
                        <g id="icon-music" transform="translate(18.000000, 13.000000)">
                            <g id="icon-tracks">
                                <path d="M7.2338417,5.28338744 L7.2338417,12.6289145 C6.8848987,12.544725 6.51269284,12.481583 6.18701271,12.481583 C5.44260098,12.481583 4.67492639,12.7131039 4.04682899,13.0919563 C3.4187316,13.4708087 3,14.081182 3,14.7967921 C3,15.5544969 3.4187316,16.1227755 4.04682899,16.5016279 C4.67492639,16.8804803 5.44260098,17.0909538 6.18701271,17.0909538 C6.8848987,17.0909538 7.67583616,16.8804803 8.30393356,16.5016279 C8.93203095,16.1227755 9.32749968,15.5544969 9.32749968,14.7967921 L9.32749968,7.09346 L16.422674,5.26234009 L16.422674,10.3347527 C16.0969938,10.2505633 15.7015251,10.2084686 15.3525821,10.2084686 C14.6314332,10.2084686 13.8404958,10.3978948 13.2123984,10.7767472 C12.584301,11.1555996 12.1888323,11.7659729 12.1888323,12.481583 C12.1888323,13.2392878 12.584301,13.8286137 13.2123984,14.1864188 C13.8404958,14.5652712 14.6314332,14.7967921 15.3525821,14.7967921 C16.0504681,14.7967921 16.8646684,14.5652712 17.4927658,14.1864188 C18.1441261,13.8286137 18.5395948,13.2392878 18.5395948,12.481583 L18.5395948,2.77875215 C18.5395948,2.31571033 18.1906518,2 17.6788688,2 C17.632343,2 17.3531886,2.08418942 16.9111942,2.1894262 C15.9806795,2.42094711 14.5849075,2.77875215 13.0030326,3.19969926 C12.1888323,3.38912546 11.4676834,3.59959901 10.7465345,3.76797785 C10.0486485,3.95740405 9.44381402,4.14683025 8.90876809,4.27311438 C8.35045929,4.42044587 8.00151629,4.50463529 7.86193909,4.54673 C7.48973323,4.65196678 7.2338417,4.94662975 7.2338417,5.28338744 Z" id="Icon-Path" fill="#FFFFFF"></path>
                                <rect id="ViewBox" x="0" y="0" width="21" height="19"></rect>
                            </g>
                        </g>
                    </g>
                </g>
            </g>
        </g>
    </g>
</svg>