<?xml version="1.0" encoding="UTF-8"?>
<svg width="19px" height="13px" viewBox="0 0 19 13" version="1.1" xmlns="http://www.w3.org/2000/svg" xmlns:xlink="http://www.w3.org/1999/xlink">
    <!-- Generator: sketchtool 63.1 (101010) - https://sketch.com -->
    <title>790BD150-9968-4ED7-AB03-4C736A7E3395</title>
    <desc>Created with sketchtool.</desc>
    <g id="Nav-and-Sign-Up" stroke="none" stroke-width="1" fill="none" fill-rule="evenodd">
        <g id="Nav---Sales" transform="translate(-18.000000, -268.000000)" fill-rule="nonzero">
            <g id="Side-Nav---Sales">
                <g id="Nav-Items" transform="translate(0.000000, 72.000000)">
                    <g id="Videos" transform="translate(0.000000, 180.000000)">
                        <g id="icon-youtube" transform="translate(18.000000, 14.000000)">
                            <g transform="translate(0.000000, 0.000000)">
                                <g id="Icon" fill="#FDD311">
                                    <path d="M18.0116984,4.06608794 C17.8058757,3.29109878 17.1994507,2.68074157 16.4294753,2.47360811 C15.0338394,2.09722225 9.43750013,2.09722225 9.43750013,2.09722225 C9.43750013,2.09722225 3.84119363,2.09722225 2.44552499,2.47360811 C1.6755495,2.68077434 1.06912458,3.29109878 0.863301878,4.06608794 C0.489340935,5.47080085 0.489340935,8.40160341 0.489340935,8.40160341 C0.489340935,8.40160341 0.489340935,11.332406 0.863301878,12.7371189 C1.06912458,13.512108 1.6755495,14.0970364 2.44552499,14.3041699 C3.84119363,14.6805558 9.43750013,14.6805558 9.43750013,14.6805558 C9.43750013,14.6805558 15.0338066,14.6805558 16.4294753,14.3041699 C17.1994507,14.0970364 17.8058757,13.512108 18.0116984,12.7371189 C18.3856593,11.332406 18.3856593,8.40160341 18.3856593,8.40160341 C18.3856593,8.40160341 18.3856593,5.47080085 18.0116984,4.06608794 Z M7.60718218,11.0625524 L7.60718218,5.74065437 L12.2846104,8.40166895 L7.60718218,11.0625524 Z" id="Icon-Shape"></path>
                                </g>
                                <rect id="ViewBox" x="0" y="0" width="18.8750002" height="16.777778"></rect>
                            </g>
                        </g>
                    </g>
                </g>
            </g>
        </g>
    </g>
</svg>