<?xml version="1.0" encoding="UTF-8"?>
<svg width="20px" height="16px" viewBox="0 0 20 16" version="1.1" xmlns="http://www.w3.org/2000/svg" xmlns:xlink="http://www.w3.org/1999/xlink">
    <!-- Generator: sketchtool 63.1 (101010) - https://sketch.com -->
    <title>3B2D9727-DCBD-4DC8-8C00-9DBBA178B22B</title>
    <desc>Created with sketchtool.</desc>
    <g id="Nav-and-Sign-Up" stroke="none" stroke-width="1" fill="none" fill-rule="evenodd">
        <g id="Nav---Sales" transform="translate(-18.000000, -311.000000)" fill="#FFFFFF" fill-rule="nonzero">
            <g id="Side-Nav---Sales">
                <g id="Nav-Items" transform="translate(0.000000, 72.000000)">
                    <g id="Analytics" transform="translate(0.000000, 225.000000)">
                        <g id="icon-chart-bar" transform="translate(18.000000, 14.000000)">
                            <g id="Shape">
                                <path d="M19.53125,13 C19.7890625,13 20,13.2109375 20,13.46875 L20,15.03125 C20,15.2890625 19.7890625,15.5 19.53125,15.5 L0.46875,15.5 C0.2109375,15.5 0,15.2890625 0,15.03125 L0,0.96875 C0,0.7109375 0.2109375,0.5 0.46875,0.5 L2.03125,0.5 C2.2890625,0.5 2.5,0.7109375 2.5,0.96875 L2.5,13 L19.53125,13 Z M7.5,11.28125 L7.5,8.46875 C7.5,8.2109375 7.2890625,8 7.03125,8 L5.46875,8 C5.2109375,8 5,8.2109375 5,8.46875 L5,11.28125 C5,11.5390625 5.2109375,11.75 5.46875,11.75 L7.03125,11.75 C7.2890625,11.75 7.5,11.5390625 7.5,11.28125 Z M15,11.28125 L15,5.96875 C15,5.7109375 14.7890625,5.5 14.53125,5.5 L12.96875,5.5 C12.7109375,5.5 12.5,5.7109375 12.5,5.96875 L12.5,11.28125 C12.5,11.5390625 12.7109375,11.75 12.96875,11.75 L14.53125,11.75 C14.7890625,11.75 15,11.5390625 15,11.28125 Z M11.25,11.28125 L11.25,3.46875 C11.25,3.2109375 11.0390625,3 10.78125,3 L9.21875,3 C8.9609375,3 8.75,3.2109375 8.75,3.46875 L8.75,11.28125 C8.75,11.5390625 8.9609375,11.75 9.21875,11.75 L10.78125,11.75 C11.0390625,11.75 11.25,11.5390625 11.25,11.28125 Z M18.75,11.28125 L18.75,2.21875 C18.75,1.9609375 18.5390625,1.75 18.28125,1.75 L16.71875,1.75 C16.4609375,1.75 16.25,1.9609375 16.25,2.21875 L16.25,11.28125 C16.25,11.5390625 16.4609375,11.75 16.71875,11.75 L18.28125,11.75 C18.5390625,11.75 18.75,11.5390625 18.75,11.28125 Z"></path>
                            </g>
                        </g>
                    </g>
                </g>
            </g>
        </g>
    </g>
</svg>