<?xml version="1.0" encoding="UTF-8"?>
<svg width="17px" height="17px" viewBox="0 0 17 17" version="1.1" xmlns="http://www.w3.org/2000/svg" xmlns:xlink="http://www.w3.org/1999/xlink">
    <!-- Generator: sketchtool 63.1 (101010) - https://sketch.com -->
    <title>4981D372-3B48-4C20-B38A-F584C6157B4E</title>
    <desc>Created with sketchtool.</desc>
    <g id="Nav-and-Sign-Up" stroke="none" stroke-width="1" fill="none" fill-rule="evenodd">
        <g id="Nav---Links" transform="translate(-19.000000, -221.000000)" fill-rule="nonzero">
            <g id="Side-Nav---Home">
                <g id="Nav-Items" transform="translate(0.000000, 72.000000)">
                    <g id="Links" transform="translate(0.000000, 135.000000)">
                        <g id="icon-link" transform="translate(19.000000, 14.000000)">
                            <g id="Icon" fill="#FDD311">
                                <path d="M10.8445391,6.15556055 C12.8283262,8.14140625 12.8010996,11.3252207 10.8564922,13.2806191 C10.8528398,13.2846035 10.8485234,13.2889199 10.8445391,13.2929043 L8.61328906,15.5241543 C6.64533984,17.4921035 3.4435957,17.4918379 1.47594531,15.5241543 C-0.492003906,13.5565371 -0.492003906,10.3544277 1.47594531,8.38681055 L2.70798047,7.15477539 C3.03469922,6.82805664 3.59735938,7.04520508 3.61422656,7.50692773 C3.63574219,8.09535352 3.74126172,8.68653516 3.93596484,9.25742969 C4.00190625,9.45073828 3.95479102,9.66456641 3.81035742,9.809 L3.37582813,10.2435293 C2.44527734,11.1740801 2.4160918,12.6892715 3.33747852,13.6289199 C4.26796289,14.577832 5.79736523,14.5834766 6.73498828,13.6458535 L8.96623828,11.4149355 C9.90226758,10.4789063 9.89834961,8.96597266 8.96623828,8.03386133 C8.84335352,7.91120898 8.71957227,7.81591602 8.62288477,7.74934375 C8.48418864,7.65410114 8.39866534,7.49891089 8.39222266,7.33078516 C8.37907422,6.97992773 8.50338672,6.61837891 8.78063281,6.34113281 L9.47969141,5.64204102 C9.66300586,5.45872656 9.95057813,5.43621484 10.1631445,5.58456641 C10.4065794,5.75454965 10.6345897,5.94561743 10.8445391,6.15556055 Z M15.5240215,1.4758457 C13.5563711,-0.491837891 10.354627,-0.492103516 8.38667773,1.4758457 L6.15542773,3.7070957 C6.15144336,3.71108008 6.14712695,3.71539648 6.14347461,3.71938086 C4.19890039,5.6747793 4.17164063,8.85859375 6.15542773,10.8444395 C6.3653647,11.0543731 6.59336411,11.2454299 6.83678906,11.4154004 C7.04935547,11.563752 7.33696094,11.541207 7.52024219,11.3579258 L8.21930078,10.658834 C8.49654687,10.3815879 8.62085938,10.0200391 8.60771094,9.66918164 C8.60126826,9.50105591 8.51574496,9.34586565 8.37704883,9.25062305 C8.28036133,9.18405078 8.15658008,9.08875781 8.03369531,8.96610547 C7.10158398,8.03399414 7.09766602,6.52106055 8.03369531,5.58503125 L10.2649453,3.35411328 C11.2025684,2.41649023 12.7319375,2.42213477 13.6624551,3.37104688 C14.5838418,4.31069531 14.5546895,5.82588672 13.6241055,6.7564375 L13.1895762,7.1909668 C13.0451426,7.33540039 12.9980273,7.54922852 13.0639687,7.74253711 C13.2586719,8.31343164 13.3641914,8.90461328 13.385707,9.49303906 C13.4026074,9.95476172 13.9652344,10.1719102 14.2919531,9.84519141 L15.5239883,8.61315625 C17.4919707,6.64557227 17.4919707,3.44346289 15.5240215,1.4758457 L15.5240215,1.4758457 Z" id="Icon-Shape"></path>
                            </g>
                            <rect id="ViewBox" x="0" y="0" width="17" height="17"></rect>
                        </g>
                    </g>
                </g>
            </g>
        </g>
    </g>
</svg>