<?xml version="1.0" encoding="UTF-8"?>
<svg width="17px" height="16px" viewBox="0 0 17 16" version="1.1" xmlns="http://www.w3.org/2000/svg" xmlns:xlink="http://www.w3.org/1999/xlink">
    <!-- Generator: sketchtool 63.1 (101010) - https://sketch.com -->
    <title>41F78021-9F5E-4097-B162-55F1F08BD3E8</title>
    <desc>Created with sketchtool.</desc>
    <g id="Page-1" stroke="none" stroke-width="1" fill="none" fill-rule="evenodd">
        <g id="Nav---Your-Music" transform="translate(-21.000000, -87.000000)" fill-rule="nonzero">
            <g id="Side-Nav---Marketing---Messages">
                <g id="Nav-Items" transform="translate(0.000000, 20.000000)">
                    <g id="Home" transform="translate(0.261385, 52.000000)">
                        <g id="icon-home" transform="translate(20.000000, 14.000000)">
                            <g>
                                <g id="Icon" transform="translate(0.000000, 1.000000)" fill="#FFFFFF">
                                    <path d="M16.8048,8.9 L15.3,8.9 L15.3,14.3 C15.3,14.7005 15.1254,15.2 14.4,15.2 L10.8,15.2 L10.8,9.8 L7.2,9.8 L7.2,15.2 L3.6,15.2 C2.8746,15.2 2.7,14.7005 2.7,14.3 L2.7,8.9 L1.1952,8.9 C0.657,8.9 0.7722,8.6084 1.1412,8.2268 L8.3628,0.998 C8.5383,0.8162 8.7687,0.7262 9,0.7172 C9.2313,0.7262 9.4617,0.8153 9.6372,0.998 L16.8579,8.2259 C17.2278,8.6084 17.343,8.9 16.8048,8.9 Z" id="Icon-Path"></path>
                                </g>
                                <rect id="ViewBox" x="0" y="0" width="18" height="18"></rect>
                            </g>
                        </g>
                    </g>
                </g>
            </g>
        </g>
    </g>
</svg>