<?xml version="1.0" encoding="UTF-8"?>
<svg width="220px" height="49px" viewBox="0 0 220 49" version="1.1" xmlns="http://www.w3.org/2000/svg" xmlns:xlink="http://www.w3.org/1999/xlink">
    <!-- Generator: sketchtool 63.1 (101010) - https://sketch.com -->
    <title>95549873-07B9-4653-AC8C-D9AA4A79EE02</title>
    <desc>Created with sketchtool.</desc>
    <g id="Page-1" stroke="none" stroke-width="1" fill="none" fill-rule="evenodd">
        <g id="Desktop---YouTube-Uploader---Connect-Google" transform="translate(-583.000000, -215.000000)" fill-rule="nonzero">
            <g id="YouTube-Connect" transform="translate(285.000000, 155.000000)">
                <g id="YouTube_Logo_2017" transform="translate(298.000000, 60.000000)">
                    <path d="M68.8384321,7.60782967 C68.0223494,4.6154372 65.6664837,2.27790837 62.6506173,1.46817766 C57.2250695,0 35.3883608,0 35.3883608,0 C35.3883608,0 13.551652,0.044490232 8.12610424,1.51266789 C5.11023781,2.32239861 2.75437212,4.65992743 1.93828944,7.6523199 C0.297173335,17.2177198 -0.339543841,31.7927198 1.98312867,40.9755037 C2.79921136,43.9678961 5.15507704,46.305425 8.17094348,47.1151557 C13.5964912,48.5833333 35.4332,48.5833333 35.4332,48.5833333 C35.4332,48.5833333 57.2699088,48.5833333 62.6954565,47.1151557 C65.711323,46.305425 68.0671887,43.9678961 68.8832713,40.9755037 C70.6140659,31.3967567 71.1476529,16.8306548 68.8384321,7.60782967 Z" id="Path" fill="#FF0000"></path>
                    <polygon id="Path" fill="#FFFFFF" points="28.4322034 34.8333333 47.0762712 24.75 28.4322034 14.6666667"></polygon>
                    <g id="Group" transform="translate(76.906780, 1.833333)" fill="#282828">
                        <path d="M24.623361,42.5333333 C23.2329709,41.6 22.2462424,40.1777778 21.6631756,38.2222222 C21.0801087,36.2666667 20.811001,33.6888889 20.811001,30.4444444 L20.811001,26.0444444 C20.811001,22.8 21.12496,20.1333333 21.7977295,18.1777778 C22.4704989,16.1777778 23.5020787,14.7555556 24.9373201,13.8666667 C26.3725616,12.9777778 28.2114647,12.4888889 30.4988807,12.4888889 C32.7414455,12.4888889 34.5803486,12.9333333 35.9258874,13.8666667 C37.2714263,14.8 38.3030061,16.2222222 38.9309242,18.1777778 C39.5588423,20.1333333 39.8728014,22.7555556 39.8728014,26 L39.8728014,30.4 C39.8728014,33.6444444 39.5588423,36.2222222 38.9309242,38.1777778 C38.3030061,40.1333333 37.3162776,41.5555556 35.9258874,42.4888889 C34.5354973,43.3777778 32.6517429,43.8666667 30.3194755,43.8666667 C27.8975056,43.9111111 26.0137512,43.4222222 24.623361,42.5333333 L24.623361,42.5333333 Z M32.3826351,37.7777778 C32.7862968,36.8 32.965702,35.1555556 32.965702,32.9333333 L32.965702,23.4666667 C32.965702,21.2888889 32.7862968,19.6888889 32.3826351,18.7111111 C31.9789735,17.6888889 31.306204,17.2 30.3643268,17.2 C29.4224496,17.2 28.7945315,17.6888889 28.3908698,18.7111111 C27.9872082,19.7333333 27.807803,21.2888889 27.807803,23.4666667 L27.807803,32.9333333 C27.807803,35.1555556 27.9872082,36.8 28.3460185,37.7777778 C28.7048289,38.7555556 29.3775983,39.2444444 30.3643268,39.2444444 C31.306204,39.2444444 31.9789735,38.7555556 32.3826351,37.7777778 L32.3826351,37.7777778 Z M130.696674,30.5333333 L130.696674,32.0888889 L130.876079,36.4888889 C131.010633,37.4666667 131.23489,38.1777778 131.5937,38.6222222 C131.95251,39.0666667 132.535577,39.2888889 133.298049,39.2888889 C134.329629,39.2888889 135.04725,38.8888889 135.40606,38.0888889 C135.809722,37.2888889 135.989127,35.9555556 136.033978,34.1333333 L141.999201,34.4888889 C142.044052,34.7555556 142.044052,35.1111111 142.044052,35.5555556 C142.044052,38.3555556 141.28158,40.4444444 139.711784,41.8222222 C138.141989,43.2 135.989127,43.9111111 133.163495,43.9111111 C129.754797,43.9111111 127.377678,42.8444444 126.032139,40.7555556 C124.686601,38.6666667 123.96898,35.3777778 123.96898,30.9777778 L123.96898,25.6 C124.121474,18.0444444 125.462528,12.5111111 133.342901,12.4888889 C135.720019,12.4888889 137.514071,12.9333333 138.769907,13.7777778 C140.025744,14.6222222 140.922769,15.9555556 141.460985,17.7777778 C141.999201,19.6 142.223457,22.0888889 142.223457,25.2888889 L142.223457,30.4888889 L130.696674,30.4888889 L130.696674,30.5333333 Z M131.5937,17.7333333 C131.23489,18.1777778 131.010633,18.8444444 130.876079,19.8222222 C130.741525,20.8 130.696674,24.2666667 130.696674,24.2666667 L130.696674,26.4444444 L135.720019,26.4444444 L135.720019,24.2666667 C135.720019,26.4444444 135.675168,20.8444444 135.540614,19.8222222 C135.40606,18.8 135.181804,18.0888889 134.822993,17.6888889 C134.464183,17.2888889 133.925967,17.0666667 133.208347,17.0666667 C132.445875,17.1111111 131.907659,17.3333333 131.5937,17.7333333 L131.5937,17.7333333 Z M7.84897665,29.9555556 L0,1.86666667 L6.86224816,1.86666667 C6.86224816,1.86666667 10.0691158,15.9555556 11.1679725,22.5777778 L11.3473777,22.5777778 C12.5942437,15.5466667 15.7428046,1.86666667 15.7428046,1.86666667 L22.6050528,1.86666667 L14.6663735,29.9111111 L14.6663735,43.3777778 L7.89382795,43.3777778 L7.89382795,29.9555556 L7.84897665,29.9555556 Z" id="Shape"></path>
                        <path d="M62.1190438,13.0666667 L62.1190438,43.4222222 L56.7368884,43.4222222 L56.1538216,39.6888889 L56.0192677,39.6888889 C54.5391749,42.4888889 52.3414615,43.9111111 49.4261273,43.9111111 C44.1471298,43.8977778 43.5595779,39.4666667 43.5057563,35.7333333 L43.5057563,13.0666667 L50.4128558,13.0666667 L50.4128558,35.3333333 C50.4128558,36.6666667 50.5474097,37.6444444 50.8613687,38.2222222 C51.4982571,39.4577778 53.1487848,39.1422222 54.0458107,38.5333333 C54.5636939,38.1864433 54.9811384,37.7115028 55.2567957,37.1555556 L55.2567957,13.0666667 L62.1190438,13.0666667 Z" id="A"></path>
                        <path d="M80.8668852,7.37777778 L74.004637,7.37777778 L74.004637,43.4222222 L67.2769428,43.4222222 L67.2769428,7.37777778 L60.4146946,7.37777778 L60.4146946,1.86666667 L80.8220339,1.86666667 L80.8220339,7.37777778 L80.8668852,7.37777778 Z M120.291174,17.9111111 C119.887512,16 119.214743,14.6222222 118.272865,13.7333333 C117.330988,12.8888889 116.075152,12.4444444 114.415654,12.4444444 C113.153621,12.4416929 111.91962,12.8131784 110.872402,13.5111111 C109.751119,14.2222222 108.943796,15.1555556 108.315878,16.3111111 L108.271027,16.3111111 L108.271027,0.311111111 L101.633035,0.311111111 L101.633035,43.3777778 L107.329149,43.3777778 L108.04677,40.4888889 L108.181324,40.4888889 C108.729739,41.506283 109.552744,42.3525977 110.558443,42.9333333 C111.634874,43.5111111 112.801007,43.8222222 114.101695,43.8222222 C116.433962,43.8222222 118.138311,42.7555556 119.259594,40.6222222 C120.336025,38.4888889 120.919092,35.1555556 120.919092,30.6666667 L120.919092,25.8666667 C120.919092,22.4888889 120.694835,19.8222222 120.291174,17.9111111 L120.291174,17.9111111 Z M113.967141,30.3111111 C113.967141,32.5333333 113.877438,34.2666667 113.698033,35.5111111 C113.518628,36.7555556 113.204669,37.6444444 112.756156,38.1777778 C112.307643,38.7111111 111.724576,38.9777778 111.006956,38.9777778 C109.616565,38.9333333 108.827183,38.3111111 108.271027,37.3777778 L108.271027,20.1333333 C108.495283,19.2888889 108.898945,18.6222222 109.482012,18.0888889 C110.46874,16.9911111 112.155149,16.9777778 112.935561,18.0888889 C113.339223,18.6222222 113.563479,19.5555556 113.742885,20.8444444 C113.877438,22.1333333 113.967141,23.9555556 113.967141,26.3555556 L113.967141,30.3111111 Z" id="Shape"></path>
                    </g>
                    <g id="A-link" transform="translate(156.144068, 13.750000)" fill="#282828">
                        <path d="M19.3432203,0.178095238 L19.3432203,30.5878571 L13.75,30.5878571 L13.1440678,26.8478571 L13.0042373,26.8478571 C11.4661017,29.6528571 9.18220339,31.077619 6.15254237,31.077619 C0.666525424,31.0642619 0.0559322034,26.6252381 0,22.8852381 L0,0.178095238 L7.1779661,0.178095238 L7.1779661,22.4845238 C7.1779661,23.8202381 7.31779661,24.7997619 7.6440678,25.3785714 C8.3059322,26.6163333 10.0211864,26.3002143 10.9533898,25.6902381 C11.4915822,25.3427286 11.925397,24.86694 12.2118644,24.31 L12.2118644,0.178095238 L19.3432203,0.178095238 Z" id="A"></path>
                    </g>
                </g>
            </g>
        </g>
    </g>
</svg>