<?xml version="1.0" encoding="UTF-8"?>
<svg width="38px" height="38px" viewBox="0 0 38 38" version="1.1" xmlns="http://www.w3.org/2000/svg" xmlns:xlink="http://www.w3.org/1999/xlink">
    <!-- Generator: sketchtool 63.1 (101010) - https://sketch.com -->
    <title>E2DD1859-260C-4BDC-BFBD-A8F061500EC9</title>
    <desc>Created with sketchtool.</desc>
    <g id="Final" stroke="none" stroke-width="1" fill="none" fill-rule="evenodd">
        <g id="Profile---Beats---Centered" transform="translate(-861.000000, -605.000000)" fill-rule="nonzero">
            <g id="Beats" transform="translate(32.000000, 511.000000)">
                <g id="Beat" transform="translate(735.000000, 0.000000)">
                    <g id="Missing-Artwork">
                        <g id="icon-image-alt" transform="translate(88.000000, 88.000000)">
                            <g id="Icon" transform="translate(5.979802, 5.979802)" fill="#D1D1D1">
                                <path d="M4.3741141,37.5066442 L33.365078,37.5066442 C35.6524018,37.5066442 37.5066442,35.6524018 37.5066442,33.365078 L37.5066442,4.3741141 C37.5066442,2.08679021 35.6524018,0.232547838 33.365078,0.232547838 L4.3741141,0.232547838 C2.08679021,0.232547838 0.232547838,2.08679021 0.232547838,4.3741141 L0.232547838,33.365078 C0.232547838,35.6524018 2.08679021,37.5066442 4.3741141,37.5066442 Z M10.5864635,23.0111623 L15.479724,27.9044228 L23.0111623,16.7988129 L33.365078,31.2942948 L4.3741141,31.2942948 L10.5864635,23.0111623 Z" id="Icon-Shape"></path>
                            </g>
                            <rect id="ViewBox" x="0" y="0" width="49.6987952" height="49.6987952"></rect>
                        </g>
                    </g>
                </g>
            </g>
        </g>
    </g>
</svg>