<?xml version="1.0" encoding="UTF-8"?>
<svg width="69px" height="69px" viewBox="0 0 69 69" version="1.1" xmlns="http://www.w3.org/2000/svg" xmlns:xlink="http://www.w3.org/1999/xlink">
    <!-- Generator: sketchtool 63.1 (101010) - https://sketch.com -->
    <title>43632263-5E05-4B7E-83C7-7F8ED39181C1</title>
    <desc>Created with sketchtool.</desc>
    <g id="Final" stroke="none" stroke-width="1" fill="none" fill-rule="evenodd">
        <g id="Profile---Beats---Centered" transform="translate(-355.000000, -589.000000)">
            <g id="Beats" transform="translate(32.000000, 511.000000)">
                <g id="Beat---Play" transform="translate(245.000000, 0.000000)">
                    <g id="Missing-Artwork">
                        <g id="icon-pause" transform="translate(78.000000, 78.000000)">
                            <g id="Icon" transform="translate(15.979802, 15.979802)" fill="#D1D1D1" fill-rule="nonzero">
                                <path d="M4.3741141,37.5066442 L33.365078,37.5066442 C35.6524018,37.5066442 37.5066442,35.6524018 37.5066442,33.365078 L37.5066442,4.3741141 C37.5066442,2.08679021 35.6524018,0.232547838 33.365078,0.232547838 L4.3741141,0.232547838 C2.08679021,0.232547838 0.232547838,2.08679021 0.232547838,4.3741141 L0.232547838,33.365078 C0.232547838,35.6524018 2.08679021,37.5066442 4.3741141,37.5066442 Z M10.5864635,23.0111623 L15.479724,27.9044228 L23.0111623,16.7988129 L33.365078,31.2942948 L4.3741141,31.2942948 L10.5864635,23.0111623 Z" id="Icon-Shape"></path>
                            </g>
                            <rect id="ViewBox" fill-rule="nonzero" x="10" y="10" width="49.6987952" height="49.6987952"></rect>
                            <g id="icon-image-alt">
                                <g id="Icon" transform="translate(15.979802, 15.979802)" fill="#D1D1D1" fill-rule="nonzero">
                                    <path d="M4.3741141,37.5066442 L33.365078,37.5066442 C35.6524018,37.5066442 37.5066442,35.6524018 37.5066442,33.365078 L37.5066442,4.3741141 C37.5066442,2.08679021 35.6524018,0.232547838 33.365078,0.232547838 L4.3741141,0.232547838 C2.08679021,0.232547838 0.232547838,2.08679021 0.232547838,4.3741141 L0.232547838,33.365078 C0.232547838,35.6524018 2.08679021,37.5066442 4.3741141,37.5066442 Z M10.5864635,23.0111623 L15.479724,27.9044228 L23.0111623,16.7988129 L33.365078,31.2942948 L4.3741141,31.2942948 L10.5864635,23.0111623 Z" id="Icon-Shape"></path>
                                </g>
                                <rect id="ViewBox" fill-rule="nonzero" x="10" y="10" width="49.6987952" height="49.6987952"></rect>
                                <g id="icon-play">
                                    <circle id="Oval" fill="#DC2EA6" cx="34.5" cy="34.5" r="34.5"></circle>
                                    <g id="icons-/-icon_pause" transform="translate(19.000000, 20.000000)" fill="#FFFFFF" fill-rule="nonzero">
                                        <g id="pause-button" transform="translate(5.000000, 0.000000)">
                                            <path d="M3.90456522,0 C2.10326087,0 0.643695652,1.46021739 0.643695652,3.26086957 L0.643695652,26.7228261 C0.643695652,28.5247826 2.10326087,29.9836957 3.90456522,29.9836957 C5.70586957,29.9836957 7.16543478,28.5241304 7.16543478,26.7228261 L7.16543478,3.26086957 C7.16543478,1.45956522 5.70652174,0 3.90456522,0 Z" id="Path"></path>
                                            <path d="M15.6436957,0 C13.8423913,0 12.3828261,1.46021739 12.3828261,3.26086957 L12.3828261,26.7228261 C12.3828261,28.5241304 13.8423913,29.9836957 15.6436957,29.9836957 C17.445,29.9836957 18.9045652,28.5241304 18.9045652,26.7228261 L18.9045652,3.26086957 C18.9045652,1.46021739 17.445,0 15.6436957,0 Z" id="Path"></path>
                                        </g>
                                    </g>
                                </g>
                            </g>
                        </g>
                    </g>
                </g>
            </g>
        </g>
    </g>
</svg>