<?xml version="1.0" encoding="UTF-8"?>
<svg width="69px" height="69px" viewBox="0 0 69 69" version="1.1" xmlns="http://www.w3.org/2000/svg" xmlns:xlink="http://www.w3.org/1999/xlink">
    <!-- Generator: sketchtool 63.1 (101010) - https://sketch.com -->
    <title>89D34A43-5E70-4A45-B382-90CED3EE8118</title>
    <desc>Created with sketchtool.</desc>
    <g id="Final" stroke="none" stroke-width="1" fill="none" fill-rule="evenodd">
        <g id="Profile---Beats---Centered" transform="translate(-355.000000, -589.000000)">
            <g id="Beats" transform="translate(32.000000, 511.000000)">
                <g id="Beat---Play" transform="translate(245.000000, 0.000000)">
                    <g id="Missing-Artwork">
                        <g id="icon-pause" transform="translate(78.000000, 78.000000)">
                            <g id="icon-image-alt">
                                <g id="icon-play">
                                    <circle id="Oval" fill="#DC2EA6" cx="34.5" cy="34.5" r="34.5"></circle>
                                    <g id="icons-/-icon_pause" transform="translate(19.000000, 20.000000)" fill="#FFFFFF" fill-rule="nonzero">
                                        <g id="pause-button" transform="translate(5.000000, 0.000000)">
                                            <path d="M3.90456522,0 C2.10326087,0 0.643695652,1.46021739 0.643695652,3.26086957 L0.643695652,26.7228261 C0.643695652,28.5247826 2.10326087,29.9836957 3.90456522,29.9836957 C5.70586957,29.9836957 7.16543478,28.5241304 7.16543478,26.7228261 L7.16543478,3.26086957 C7.16543478,1.45956522 5.70652174,0 3.90456522,0 Z" id="Path"></path>
                                            <path d="M15.6436957,0 C13.8423913,0 12.3828261,1.46021739 12.3828261,3.26086957 L12.3828261,26.7228261 C12.3828261,28.5241304 13.8423913,29.9836957 15.6436957,29.9836957 C17.445,29.9836957 18.9045652,28.5241304 18.9045652,26.7228261 L18.9045652,3.26086957 C18.9045652,1.46021739 17.445,0 15.6436957,0 Z" id="Path"></path>
                                        </g>
                                    </g>
                                </g>
                            </g>
                        </g>
                    </g>
                </g>
            </g>
        </g>
    </g>
</svg>