<?xml version="1.0" encoding="UTF-8"?>
<svg width="20px" height="18px" viewBox="0 0 20 18" version="1.1" xmlns="http://www.w3.org/2000/svg" xmlns:xlink="http://www.w3.org/1999/xlink">
    <!-- Generator: sketchtool 63.1 (101010) - https://sketch.com -->
    <title>410D5C52-C1C9-40D0-820B-D617DC73D370</title>
    <desc>Created with sketchtool.</desc>
    <g id="Email-Steps" stroke="none" stroke-width="1" fill="none" fill-rule="evenodd">
        <g id="Marketing---Customize---New-Release" transform="translate(-807.000000, -290.000000)" fill-rule="nonzero">
            <g id="Sidebar" transform="translate(704.000000, 59.000000)">
                <g id="Logo" transform="translate(20.000000, 118.000000)">
                    <g id="icon-photo-camera" transform="translate(81.000000, 110.000000)">
                        <g id="Icon" transform="translate(2.000000, 3.000000)" fill="#FFFFFF">
                            <circle id="Icon-Oval" cx="9.90970701" cy="9.90970701" r="3.17110624"></circle>
                            <path d="M6.93679491,0 L5.12331852,1.9819414 L1.9819414,1.9819414 C0.891873631,1.9819414 0,2.87381503 0,3.9638828 L0,15.8555312 C0,16.945599 0.891873631,17.8374726 1.9819414,17.8374726 L17.8374726,17.8374726 C18.9275404,17.8374726 19.819414,16.945599 19.819414,15.8555312 L19.819414,3.9638828 C19.819414,2.87381503 18.9275404,1.9819414 17.8374726,1.9819414 L14.6960955,1.9819414 L12.8826191,0 L6.93679491,0 Z M9.90970701,14.8645605 C7.17462787,14.8645605 4.9548535,12.6447861 4.9548535,9.90970701 C4.9548535,7.17462787 7.17462787,4.9548535 9.90970701,4.9548535 C12.6447861,4.9548535 14.8645605,7.17462787 14.8645605,9.90970701 C14.8645605,12.6447861 12.6447861,14.8645605 9.90970701,14.8645605 Z" id="Icon-Shape"></path>
                        </g>
                        <rect id="ViewBox" x="0" y="0" width="23.7832968" height="23.7832968"></rect>
                    </g>
                </g>
            </g>
        </g>
    </g>
</svg>