<?xml version="1.0" encoding="UTF-8"?>
<svg width="43px" height="42px" viewBox="0 0 43 42" version="1.1" xmlns="http://www.w3.org/2000/svg" xmlns:xlink="http://www.w3.org/1999/xlink">
    <!-- Generator: sketchtool 63.1 (101010) - https://sketch.com -->
    <title>9C41F169-058C-4F3A-8358-FDA3A0931F32</title>
    <desc>Created with sketchtool.</desc>
    <g id="Final" stroke="none" stroke-width="1" fill="none" fill-rule="evenodd">
        <g id="Profile---Beats---Centered" transform="translate(-491.000000, -1635.000000)">
            <g id="Player" transform="translate(0.000000, 1623.000000)">
                <g id="Controls">
                    <g transform="translate(453.000000, 13.000000)">
                        <g id="icon-player-pause" transform="translate(39.166667, 0.000000)">
                            <circle id="Oval" stroke="#FFFFFF" stroke-width="2" cx="20" cy="20" r="20"></circle>
                            <g id="icons-/-icon_pause" transform="translate(10.000000, 10.000000)" fill="#FFFFFF" fill-rule="nonzero">
                                <g id="pause-button" transform="translate(3.333333, 0.000000)">
                                    <path d="M2.60304348,0 C1.40217391,0 0.429130435,0.973478261 0.429130435,2.17391304 L0.429130435,17.8152174 C0.429130435,19.0165217 1.40217391,19.9891304 2.60304348,19.9891304 C3.80391304,19.9891304 4.77695652,19.016087 4.77695652,17.8152174 L4.77695652,2.17391304 C4.77695652,0.973043478 3.80434783,0 2.60304348,0 Z" id="Path"></path>
                                    <path d="M10.4291304,0 C9.22826087,0 8.25521739,0.973478261 8.25521739,2.17391304 L8.25521739,17.8152174 C8.25521739,19.016087 9.22826087,19.9891304 10.4291304,19.9891304 C11.63,19.9891304 12.6030435,19.016087 12.6030435,17.8152174 L12.6030435,2.17391304 C12.6030435,0.973478261 11.63,0 10.4291304,0 Z" id="Path"></path>
                                </g>
                            </g>
                        </g>
                    </g>
                </g>
            </g>
        </g>
    </g>
</svg>