<?xml version="1.0" encoding="UTF-8"?>
<svg width="20px" height="17px" viewBox="0 0 20 17" version="1.1" xmlns="http://www.w3.org/2000/svg" xmlns:xlink="http://www.w3.org/1999/xlink">
    <!-- Generator: sketchtool 63.1 (101010) - https://sketch.com -->
    <title>D8A28E24-1E02-427C-8270-49488EF62F92</title>
    <desc>Created with sketchtool.</desc>
    <g id="Nav-and-Sign-Up" stroke="none" stroke-width="1" fill="none" fill-rule="evenodd">
        <g id="Nav---Sales" transform="translate(-16.000000, -400.000000)" fill="#FDD311" fill-rule="nonzero">
            <g id="Side-Nav---Sales">
                <g id="Nav-Items" transform="translate(0.000000, 72.000000)">
                    <g id="Online-Store" transform="translate(0.000000, 315.000000)">
                        <g id="store-solid" transform="translate(16.000000, 13.000000)">
                            <g transform="translate(10.000000, 8.181818) scale(-1, 1) translate(-10.000000, -8.181818) translate(0.000000, 0.000000)" id="Shape">
                                <path d="M19.5459587,3.79048295 L17.4385645,0.479403409 C17.2502303,0.182173295 16.9157748,0 16.5585894,0 L3.44014132,0 C3.08295585,0 2.74850037,0.182173295 2.56016621,0.479403409 L0.452771961,3.79048295 C-0.635020141,5.50035511 0.329380618,7.87819602 2.36209064,8.14985795 C2.50821196,8.16903409 2.65758043,8.17862216 2.8069489,8.17862216 C3.76810252,8.17862216 4.61885336,7.7631392 5.20333867,7.12073864 C5.78782398,7.7631392 6.64182195,8.17862216 7.59972843,8.17862216 C8.56088205,8.17862216 9.41163289,7.7631392 9.9961182,7.12073864 C10.5806035,7.7631392 11.4346015,8.17862216 12.392508,8.17862216 C13.3536616,8.17862216 14.2044124,7.7631392 14.7888977,7.12073864 C15.3766302,7.7631392 16.227381,8.17862216 17.1852875,8.17862216 C17.3379031,8.17862216 17.4840244,8.16903409 17.6301458,8.14985795 C19.6693501,7.88139205 20.636998,5.50355114 19.5459587,3.79048295 L19.5459587,3.79048295 Z M17.1917818,9.20454545 C16.8670677,9.20454545 16.5456008,9.15660511 16.2338753,9.08309659 L16.2338753,12.2727273 L3.76485538,12.2727273 L3.76485538,9.08309659 C3.45312988,9.15340909 3.13166296,9.20454545 2.8069489,9.20454545 C2.61212046,9.20454545 2.41404489,9.19176136 2.22246359,9.16619318 C2.04062372,9.140625 1.86203098,9.0990767 1.68993253,9.05113636 L1.68993253,15.3409091 C1.68993253,15.9066051 2.15427364,16.3636364 2.72901753,16.3636364 L17.2762074,16.3636364 C17.8509513,16.3636364 18.3152924,15.9066051 18.3152924,15.3409091 L18.3152924,9.05113636 C18.1399468,9.10227273 17.9646012,9.14382102 17.7827614,9.16619318 C17.5846858,9.19176136 17.3898574,9.20454545 17.1917818,9.20454545 Z"></path>
                            </g>
                        </g>
                    </g>
                </g>
            </g>
        </g>
    </g>
</svg>