<?xml version="1.0" encoding="UTF-8"?>
<svg width="16px" height="19px" viewBox="0 0 16 19" version="1.1" xmlns="http://www.w3.org/2000/svg" xmlns:xlink="http://www.w3.org/1999/xlink">
    <!-- Generator: sketchtool 63.1 (101010) - https://sketch.com -->
    <title>AA9F22F2-DF20-421F-9313-F6D7BCAFCB34</title>
    <desc>Created with sketchtool.</desc>
    <defs>
        <linearGradient x1="41.8930406%" y1="88.6284178%" x2="55.0951729%" y2="11.3698356%" id="linearGradient-1">
            <stop stop-color="#D227B2" offset="0%"></stop>
            <stop stop-color="#DC3299" offset="26%"></stop>
            <stop stop-color="#F64D58" offset="81%"></stop>
            <stop stop-color="#FF5740" offset="100%"></stop>
        </linearGradient>
        <linearGradient x1="37.7334859%" y1="91.8374436%" x2="55.4036917%" y2="9.93834665%" id="linearGradient-2">
            <stop stop-color="#F8435F" offset="0%"></stop>
            <stop stop-color="#FB6048" offset="39%"></stop>
            <stop stop-color="#FF9420" offset="100%"></stop>
        </linearGradient>
        <linearGradient x1="23.1137135%" y1="100.548664%" x2="64.1600772%" y2="4.84590526%" id="linearGradient-3">
            <stop stop-color="#FF9420" offset="0%"></stop>
            <stop stop-color="#FFAD19" offset="39%"></stop>
            <stop stop-color="#FEDD0B" offset="100%"></stop>
        </linearGradient>
        <linearGradient x1="28.4551011%" y1="94.0079548%" x2="56.090644%" y2="8.66858178%" id="linearGradient-4">
            <stop stop-color="#FF6C40" offset="0%"></stop>
            <stop stop-color="#FF8531" offset="32%"></stop>
            <stop stop-color="#FEC60C" offset="99%"></stop>
            <stop stop-color="#FEC70B" offset="100%"></stop>
        </linearGradient>
    </defs>
    <g id="Checkout" stroke="none" stroke-width="1" fill="none" fill-rule="evenodd">
        <g id="Pay-With-Card" transform="translate(-104.000000, -69.000000)" fill-rule="nonzero">
            <g id="Group-2" transform="translate(92.000000, 60.000000)">
                <g id="Group">
                    <g id="LinkStream-Icon">
                        <g id="streamy-logo" transform="translate(12.000000, 9.600000)">
                            <path d="M1.74332911,17.7935191 C0.791341269,17.7924907 0.0199553655,17.0208266 0.0192497235,16.0688385 L0.0192497235,1.74674801 C0.0170365661,1.28780282 0.197852297,0.846901772 0.521678608,0.521675383 C0.84550492,0.196448993 1.28562179,0.0137328104 1.74457235,0.0139861528 C2.04206916,0.0139861528 2.33443539,0.0914752921 2.59277081,0.239012317 L5.28158167,1.78746403 C4.21475158,2.06250204 3.46876118,3.02396954 3.46738805,4.12568205 L3.46738805,16.0688385 C3.46896401,16.5265687 3.28782873,16.9660061 2.96416271,17.2896721 C2.64049668,17.6133381 2.20105928,17.7944734 1.74332911,17.7928974 L1.74332911,17.7935191 Z" id="Path" fill="url(#linearGradient-1)"></path>
                            <path d="M4.06973639,16.7187406 C4.1279792,16.5070274 4.15735727,16.2884169 4.15707379,16.0688385 L4.15707379,4.12568205 C4.15810159,3.17393665 4.92938732,2.40265092 5.88113273,2.40162311 C6.16649216,2.40218929 6.44751645,2.47148587 6.70042592,2.60364913 L9.42031772,4.17945205 C8.34827042,4.45274169 7.59986237,5.42067423 7.60519167,6.52699436 L7.60519167,13.6849315 C7.60635741,14.2586739 7.32208188,14.7954187 6.84681708,15.1168297 L4.06973639,16.7187406 Z" id="Path" fill="url(#linearGradient-2)"></path>
                            <path d="M12.3453436,11.9391159 C12.4032947,11.7278802 12.4325661,11.5098085 12.4323702,11.2907678 L12.4323702,8.90468516 C12.4333643,8.29764064 12.7530266,7.73570021 13.2743095,7.42462436 C13.7955924,7.11354851 14.4419284,7.09902886 14.9766548,7.38638195 L15.137654,7.48304363 C15.6056983,7.80862926 15.8834643,8.3437587 15.880385,8.91390063 C15.8772543,9.48404256 15.5936762,10.0161149 15.1221135,10.3365834 L12.3453436,11.9391159 Z" id="Path" fill="url(#linearGradient-3)"></path>
                            <path d="M8.20785081,14.3283067 C8.26554469,14.1182902 8.29481441,13.9014852 8.2948774,13.6836883 L8.2948774,6.52699436 C8.29264379,6.06813159 8.47342678,5.6273096 8.7971948,5.3021415 C9.12096283,4.9769734 9.56100064,4.79428996 10.0198688,4.79454331 C10.3173656,4.79454331 10.6097318,4.87203245 10.8680672,5.01956947 L13.5550132,6.56833199 C12.4890988,6.84415281 11.7440884,7.80521755 11.7426845,8.90623921 L11.7426845,11.2923219 C11.7436082,11.9251564 11.3975692,12.5075758 10.8413376,12.8093818 L8.20785081,14.3283067 Z" id="Path" fill="url(#linearGradient-4)"></path>
                        </g>
                    </g>
                </g>
            </g>
        </g>
    </g>
</svg>