<?xml version="1.0" encoding="UTF-8"?>
<svg width="35px" height="35px" viewBox="0 0 35 35" version="1.1" xmlns="http://www.w3.org/2000/svg" xmlns:xlink="http://www.w3.org/1999/xlink">
    <!-- Generator: sketchtool 63.1 (101010) - https://sketch.com -->
    <title>B3A966A8-216C-4610-BF7F-2D9AC8949308</title>
    <desc>Created with sketchtool.</desc>
    <g id="Page-1" stroke="none" stroke-width="1" fill="none" fill-rule="evenodd">
        <g id="Edit-Video-Information" transform="translate(-107.000000, -676.000000)">
            <g id="Video-1" transform="translate(10.000000, 270.000000)">
                <g id="Group">
                    <g id="Bottom-Buttons" transform="translate(9.000000, 390.000000)">
                        <g id="Buttons" transform="translate(0.000000, 15.000000)">
                            <g id="icon-edit" transform="translate(88.000000, 1.000000)">
                                <rect id="Rectangle-Copy" fill="#F2F2F2" x="0" y="0" width="35" height="35" rx="17.5"></rect>
                                <g id="bx-bxs-trash-alt" transform="translate(8.000000, 8.000000)" fill-rule="nonzero">
                                    <g id="Icon" fill="#000000">
                                        <path d="M4.8,5.6 L4,5.6 L4,16 C4,16.8836556 4.7163444,17.6 5.6,17.6 L13.6,17.6 C14.4836556,17.6 15.2,16.8836556 15.2,16 L15.2,5.6 L4.8,5.6 Z M13.2944,3.2 L12,1.6 L7.2,1.6 L5.9056,3.2 L2.4,3.2 L2.4,4.8 L16.8,4.8 L16.8,3.2 L13.2944,3.2 Z" id="Icon-Shape"></path>
                                    </g>
                                    <rect id="ViewBox" x="0" y="0" width="19.2" height="19.2"></rect>
                                </g>
                            </g>
                        </g>
                    </g>
                </g>
            </g>
        </g>
    </g>
</svg>