<?xml version="1.0" encoding="UTF-8"?>
<svg width="16px" height="15px" viewBox="0 0 16 15" version="1.1" xmlns="http://www.w3.org/2000/svg" xmlns:xlink="http://www.w3.org/1999/xlink">
    <!-- Generator: sketchtool 63.1 (101010) - https://sketch.com -->
    <title>E08C5E95-F1D6-4120-BD1B-C6D757068393</title>
    <desc>Created with sketchtool.</desc>
    <g id="Final" stroke="none" stroke-width="1" fill="none" fill-rule="evenodd">
        <g id="Profile---Beats---Centered" transform="translate(-954.000000, -1649.000000)" fill="#FFFFFF" fill-rule="nonzero">
            <g id="Player" transform="translate(0.000000, 1623.000000)">
                <g id="icon-volume">
                    <g transform="translate(950.000000, 21.000000)">
                        <g id="volume">
                            <g id="icons-/-icon_volume">
                                <g id="icon-(4)" transform="translate(4.000000, 5.000000)">
                                    <path d="M2.69537523,4.365983 L0,4.365983 L0,10.6729653 L2.69537523,10.6729653 L7.79083764,14.642762 C7.79083764,14.642762 8.72727273,15.4645624 8.72727273,14.6152872 C8.72727273,13.7635698 8.72727273,1.07511806 8.72727273,0.300330011 C8.72727273,-0.366390677 7.90302384,0.285066259 7.90302384,0.285066259 L2.69537523,4.365983 Z" id="Path"></path>
                                    <path d="M11.3589274,3.20691723 C11.0894563,2.93102759 10.6533925,2.93102759 10.3839215,3.20691723 C10.1144504,3.4840064 10.1144504,3.93322671 10.3839215,4.20611755 C11.271247,5.11835266 11.710818,6.30227909 11.7125716,7.49520192 C11.7102335,8.69052379 11.2706625,9.88164734 10.3839215,10.7908836 C10.1144504,11.0661735 10.1144504,11.5171931 10.3839215,11.7936825 C10.5183647,11.9316273 10.69431,12 10.8725935,12 C11.0485388,12 11.2244841,11.9322271 11.3589274,11.7936825 C12.5145549,10.6067573 13.0920764,9.04798081 13.0909091,7.49520192 C13.0920764,5.94422231 12.5128013,4.3902439 11.3589274,3.20691723 Z" id="Path"></path>
                                    <path d="M13.4883224,0.958458862 C13.228244,0.680513713 12.8139007,0.680513713 12.5549362,0.958458862 C12.300427,1.23640401 12.300427,1.68363757 12.5549362,1.96158272 C13.9745074,3.49118151 14.6834577,5.48482263 14.6845715,7.48806877 C14.6834577,9.50031961 13.977292,11.5065673 12.5549362,13.0409686 C12.2993131,13.3177131 12.300427,13.765547 12.5549362,14.0434922 C12.68414,14.1809639 12.8539985,14.25 13.0216293,14.25 C13.1903739,14.25 13.3596755,14.1809639 13.4883224,14.0434922 C15.1624029,12.231746 16,9.85750614 16,7.48806877 C16,5.12643547 15.1568337,2.76059998 13.4883224,0.958458862 Z" id="Path"></path>
                                </g>
                            </g>
                        </g>
                    </g>
                </g>
            </g>
        </g>
    </g>
</svg>