<?xml version="1.0" encoding="UTF-8"?>
<svg width="20px" height="20px" viewBox="0 0 20 20" version="1.1" xmlns="http://www.w3.org/2000/svg" xmlns:xlink="http://www.w3.org/1999/xlink">
    <!-- Generator: sketchtool 61.2 (101010) - https://sketch.com -->
    <title>8951D468-2395-4E37-B3F0-0C6A5112A6DA</title>
    <desc>Created with sketchtool.</desc>
    <defs>
        <path d="M19.53125,15 C19.7890625,15 20,15.2109375 20,15.46875 L20,17.03125 C20,17.2890625 19.7890625,17.5 19.53125,17.5 L0.46875,17.5 C0.2109375,17.5 0,17.2890625 0,17.03125 L0,2.96875 C0,2.7109375 0.2109375,2.5 0.46875,2.5 L2.03125,2.5 C2.2890625,2.5 2.5,2.7109375 2.5,2.96875 L2.5,15 L19.53125,15 Z M7.5,13.28125 L7.5,10.46875 C7.5,10.2109375 7.2890625,10 7.03125,10 L5.46875,10 C5.2109375,10 5,10.2109375 5,10.46875 L5,13.28125 C5,13.5390625 5.2109375,13.75 5.46875,13.75 L7.03125,13.75 C7.2890625,13.75 7.5,13.5390625 7.5,13.28125 Z M15,13.28125 L15,7.96875 C15,7.7109375 14.7890625,7.5 14.53125,7.5 L12.96875,7.5 C12.7109375,7.5 12.5,7.7109375 12.5,7.96875 L12.5,13.28125 C12.5,13.5390625 12.7109375,13.75 12.96875,13.75 L14.53125,13.75 C14.7890625,13.75 15,13.5390625 15,13.28125 Z M11.25,13.28125 L11.25,5.46875 C11.25,5.2109375 11.0390625,5 10.78125,5 L9.21875,5 C8.9609375,5 8.75,5.2109375 8.75,5.46875 L8.75,13.28125 C8.75,13.5390625 8.9609375,13.75 9.21875,13.75 L10.78125,13.75 C11.0390625,13.75 11.25,13.5390625 11.25,13.28125 Z M18.75,13.28125 L18.75,4.21875 C18.75,3.9609375 18.5390625,3.75 18.28125,3.75 L16.71875,3.75 C16.4609375,3.75 16.25,3.9609375 16.25,4.21875 L16.25,13.28125 C16.25,13.5390625 16.4609375,13.75 16.71875,13.75 L18.28125,13.75 C18.5390625,13.75 18.75,13.5390625 18.75,13.28125 Z" id="path-1"></path>
    </defs>
    <g id="Asset-Artboard-Page" stroke="none" stroke-width="1" fill="none" fill-rule="evenodd">
        <g id="icon-chart-bar-Solid/chart-bar">
            <mask id="mask-2" fill="white">
                <use xlink:href="#path-1"></use>
            </mask>
            <use id="Mask" fill="#000000" fill-rule="nonzero" xlink:href="#path-1"></use>
            <g id="Color-Color/Purple" mask="url(#mask-2)" fill="#FFFFFF">
                <rect id="Purple" x="0" y="0" width="20" height="20"></rect>
            </g>
        </g>
    </g>
</svg>