<?xml version="1.0" encoding="UTF-8"?>
<svg width="20px" height="20px" viewBox="0 0 20 20" version="1.1" xmlns="http://www.w3.org/2000/svg" xmlns:xlink="http://www.w3.org/1999/xlink">
    <!-- Generator: sketchtool 61.2 (101010) - https://sketch.com -->
    <title>BA15F28B-C9D9-4088-9AD5-3343EFEDC06C</title>
    <desc>Created with sketchtool.</desc>
    <g id="Navigation" stroke="none" stroke-width="1" fill="none" fill-rule="evenodd">
        <g id="Desktop-Nav---Side-Nav-Open" transform="translate(-53.000000, -270.000000)" fill-rule="nonzero">
            <g id="Side-Nav" transform="translate(0.000000, 80.000000)">
                <g id="Dashboard-+-My-Stream-+-My-Content-+-Reports-Mask">
                    <g id="My-Content" transform="translate(-1.000000, 170.000000)">
                        <g id="Group-6" transform="translate(34.000000, 19.000000)">
                            <g id="fa-solid:link" transform="translate(20.000000, 1.000000)">
                                <g id="Icon" fill="#FFFFFF">
                                    <path d="M12.7582812,7.24183594 C15.0921484,9.578125 15.0601172,13.3237891 12.7723437,15.6242578 C12.7680469,15.6289453 12.7629687,15.6340234 12.7582812,15.6387109 L10.1332812,18.2637109 C7.81804687,20.5789453 4.05128906,20.5786328 1.73640625,18.2637109 C-0.578828125,15.9488672 -0.578828125,12.1816797 1.73640625,9.86683594 L3.18585938,8.41738281 C3.57023438,8.03300781 4.2321875,8.28847656 4.25203125,8.83167969 C4.27734375,9.52394531 4.40148437,10.2194531 4.63054688,10.8910937 C4.708125,11.1185156 4.65269531,11.3700781 4.48277344,11.54 L3.9715625,12.0512109 C2.87679688,13.1459766 2.84246094,14.9285547 3.92644531,16.0340234 C5.02113281,17.1503906 6.82042969,17.1570312 7.92351562,16.0539453 L10.5485156,13.4293359 C11.6497266,12.328125 11.6451172,10.5482031 10.5485156,9.45160156 C10.4039453,9.30730469 10.2583203,9.19519531 10.1445703,9.116875 C9.98139839,9.00482488 9.88078275,8.82224811 9.87320312,8.62445313 C9.85773437,8.21167969 10.0039844,7.78632813 10.3301562,7.46015625 L11.1525781,6.63769531 C11.3682422,6.42203125 11.7065625,6.39554688 11.9566406,6.57007813 C12.2430346,6.77005841 12.511282,6.99484403 12.7582812,7.24183594 Z M18.2635547,1.73628906 C15.9486719,-0.578632812 12.1819141,-0.578945312 9.86667969,1.73628906 L7.24167969,4.36128906 C7.23699219,4.36597656 7.23191406,4.37105469 7.22761719,4.37574219 C4.93988281,6.67621094 4.9078125,10.421875 7.24167969,12.7581641 C7.48866435,13.0051448 7.75689895,13.2299176 8.04328125,13.4298828 C8.29335937,13.6044141 8.63171875,13.5778906 8.84734375,13.3622656 L9.66976563,12.5398047 C9.9959375,12.2136328 10.1421875,11.7882813 10.1267188,11.3755078 C10.1191391,11.1777128 10.0185235,10.9951361 9.85535156,10.8830859 C9.74160156,10.8047656 9.59597656,10.6926563 9.45140625,10.5483594 C8.35480469,9.45175781 8.35019531,7.67183594 9.45140625,6.570625 L12.0764062,3.94601563 C13.1794922,2.84292969 14.97875,2.84957031 16.0734766,3.9659375 C17.1574609,5.07140625 17.1231641,6.85398438 16.0283594,7.94875 L15.5171484,8.45996094 C15.3472266,8.62988281 15.2917969,8.88144531 15.369375,9.10886719 C15.5984375,9.78050781 15.7225781,10.4760156 15.7478906,11.1682813 C15.7677734,11.7114844 16.4296875,11.9669531 16.8140625,11.5825781 L18.2635156,10.133125 C20.5787891,7.81832031 20.5787891,4.05113281 18.2635547,1.73628906 L18.2635547,1.73628906 Z" id="Icon-Shape"></path>
                                </g>
                                <rect id="ViewBox" x="0" y="0" width="20" height="20"></rect>
                            </g>
                        </g>
                    </g>
                </g>
            </g>
        </g>
    </g>
</svg>