<?xml version="1.0" encoding="UTF-8"?>
<svg width="59px" height="54px" viewBox="0 0 59 54" version="1.1" xmlns="http://www.w3.org/2000/svg" xmlns:xlink="http://www.w3.org/1999/xlink">
    <!-- Generator: sketchtool 62 (101010) - https://sketch.com -->
    <title>7ABAADCA-DEC9-4E79-9BFD-A2358C43E390</title>
    <desc>Created with sketchtool.</desc>
    <g id="Add-Streamy" stroke="none" stroke-width="1" fill="none" fill-rule="evenodd">
        <g id="Add-Streamy---Desktop---Step-3---Add-Cover-Art" transform="translate(-235.000000, -279.000000)" fill="#D7D7D7" fill-rule="nonzero">
            <g id="Upload-Field" transform="translate(168.000000, 239.000000)">
                <g id="Content" transform="translate(48.571429, 40.000000)">
                    <g id="ic-outline-add-a-photo" transform="translate(18.000000, 0.000000)">
                        <g id="Icon" transform="translate(0.663366, 0.333333)">
                            <path d="M52.9565217,12.6190476 L44.9626087,12.6190476 L40.3478261,7.57142857 L25.2173913,7.57142857 L25.2173913,12.6190476 L38.1286957,12.6190476 L42.7434783,17.6666667 L52.9565217,17.6666667 L52.9565217,47.952381 L12.6086957,47.952381 L12.6086957,25.2380952 L7.56521739,25.2380952 L7.56521739,47.952381 C7.56521739,50.7285714 9.83478261,53 12.6086957,53 L52.9565217,53 C55.7304348,53 58,50.7285714 58,47.952381 L58,17.6666667 C58,14.8904762 55.7304348,12.6190476 52.9565217,12.6190476 Z M20.173913,32.8095238 C20.173913,39.7752381 25.8226087,45.4285714 32.7826087,45.4285714 C39.7426087,45.4285714 45.3913043,39.7752381 45.3913043,32.8095238 C45.3913043,25.8438095 39.7426087,20.1904762 32.7826087,20.1904762 C25.8226087,20.1904762 20.173913,25.8438095 20.173913,32.8095238 Z M32.7826087,25.2380952 C36.9434783,25.2380952 40.3478261,28.6452381 40.3478261,32.8095238 C40.3478261,36.9738095 36.9434783,40.3809524 32.7826087,40.3809524 C28.6217391,40.3809524 25.2173913,36.9738095 25.2173913,32.8095238 C25.2173913,28.6452381 28.6217391,25.2380952 32.7826087,25.2380952 Z M12.6086957,12.6190476 L20.173913,12.6190476 L20.173913,7.57142857 L12.6086957,7.57142857 L12.6086957,0 L7.56521739,0 L7.56521739,7.57142857 L0,7.57142857 L0,12.6190476 L7.56521739,12.6190476 L7.56521739,20.1904762 L12.6086957,20.1904762 L12.6086957,12.6190476 Z" id="Icon-Shape"></path>
                        </g>
                    </g>
                </g>
            </g>
        </g>
    </g>
</svg>