<?xml version="1.0" encoding="UTF-8"?>
<svg width="16px" height="18px" viewBox="0 0 16 18" version="1.1" xmlns="http://www.w3.org/2000/svg" xmlns:xlink="http://www.w3.org/1999/xlink">
    <!-- Generator: sketchtool 62 (101010) - https://sketch.com -->
    <title>A14C9BC6-6E92-4093-BDC0-2DD12D9039C2</title>
    <desc>Created with sketchtool.</desc>
    <g id="Navigation-2" stroke="none" stroke-width="1" fill="none" fill-rule="evenodd">
        <g id="Desktop-Nav---Side-Nav---Links" transform="translate(-56.000000, -275.000000)" fill-rule="nonzero">
            <g id="Side-Nav" transform="translate(0.000000, 80.000000)">
                <g id="My-Links" transform="translate(-1.000000, 173.000000)">
                    <g id="Content" transform="translate(28.000000, 20.000000)">
                        <g id="icon-tracks" transform="translate(26.000000, 0.000000)">
                            <path d="M7.2338417,6.1187404 L7.2338417,14.2374808 C6.8848987,14.1444293 6.51269284,14.0746407 6.18701271,14.0746407 C5.44260098,14.0746407 4.67492639,14.3305323 4.04682899,14.7492639 C3.4187316,15.1679955 3,15.8426186 3,16.6335561 C3,17.4710192 3.4187316,18.0991166 4.04682899,18.5178482 C4.67492639,18.9365798 5.44260098,19.1692085 6.18701271,19.1692085 C6.8848987,19.1692085 7.67583616,18.9365798 8.30393356,18.5178482 C8.93203095,18.0991166 9.32749968,17.4710192 9.32749968,16.6335561 L9.32749968,8.11934692 L16.422674,6.09547754 L16.422674,11.7018284 C16.0969938,11.6087769 15.7015251,11.5622512 15.3525821,11.5622512 C14.6314332,11.5622512 13.8404958,11.771617 13.2123984,12.1903486 C12.584301,12.6090802 12.1888323,13.2837033 12.1888323,14.0746407 C12.1888323,14.9121039 12.584301,15.5634642 13.2123984,15.9589329 C13.8404958,16.3776645 14.6314332,16.6335561 15.3525821,16.6335561 C16.0504681,16.6335561 16.8646684,16.3776645 17.4927658,15.9589329 C18.1441261,15.5634642 18.5395948,14.9121039 18.5395948,14.0746407 L18.5395948,3.35045929 C18.5395948,2.83867623 18.1906518,2.48973323 17.6788688,2.48973323 C17.632343,2.48973323 17.3531886,2.5827847 16.9111942,2.69909903 C15.9806795,2.95499056 14.5849075,3.35045929 13.0030326,3.81571662 C12.1888323,4.02508242 11.4676834,4.25771108 10.7465345,4.44381402 C10.0486485,4.65317981 9.44381402,4.86254561 8.90876809,5.00212281 C8.35045929,5.16496288 8.00151629,5.25801434 7.86193909,5.30454008 C7.48973323,5.42085441 7.2338417,5.74653454 7.2338417,6.1187404 Z" id="Icon-Path" fill="#FFFFFF"></path>
                            <rect id="ViewBox" x="0" y="0" width="21" height="21"></rect>
                        </g>
                    </g>
                </g>
            </g>
        </g>
    </g>
</svg>