<?xml version="1.0" encoding="UTF-8"?>
<svg width="20px" height="20px" viewBox="0 0 20 20" version="1.1" xmlns="http://www.w3.org/2000/svg" xmlns:xlink="http://www.w3.org/1999/xlink">
    <!-- Generator: sketchtool 62 (101010) - https://sketch.com -->
    <title>3694CEB0-D7C6-4037-9C60-CAE3826549E9</title>
    <desc>Created with sketchtool.</desc>
    <defs>
        <path d="M0.3125,10 C0.3125,4.6484375 4.6484375,0.3125 10,0.3125 C15.3515625,0.3125 19.6875,4.6484375 19.6875,10 C19.6875,15.3515625 15.3515625,19.6875 10,19.6875 C4.6484375,19.6875 0.3125,15.3515625 0.3125,10 Z M5.921875,11.1289062 L8.75,8.1796875 L8.75,15.3125 C8.75,15.8320312 9.16796875,16.25 9.6875,16.25 L10.3125,16.25 C10.8320312,16.25 11.25,15.8320312 11.25,15.3125 L11.25,8.1796875 L14.078125,11.1289062 C14.4414062,11.5078125 15.046875,11.515625 15.4179688,11.1445312 L15.84375,10.7148437 C16.2109375,10.3476562 16.2109375,9.75390625 15.84375,9.390625 L10.6640625,4.20703125 C10.296875,3.83984375 9.703125,3.83984375 9.33984375,4.20703125 L4.15234375,9.390625 C3.78515625,9.7578125 3.78515625,10.3515625 4.15234375,10.7148438 L4.578125,11.1445312 C4.953125,11.515625 5.55859375,11.5078125 5.921875,11.1289062 L5.921875,11.1289062 Z" id="path-1"></path>
    </defs>
    <g id="Navigation-2" stroke="none" stroke-width="1" fill="none" fill-rule="evenodd">
        <g id="Desktop-Nav---Side-Nav---Tracks" transform="translate(-53.000000, -700.000000)">
            <g id="Side-Nav" transform="translate(0.000000, 80.000000)">
                <g id="Upgrade" transform="translate(-1.000000, 600.000000)">
                    <g id="Content" transform="translate(32.000000, 20.000000)">
                        <g id="icon-upgrade" transform="translate(22.000000, 0.000000)">
                            <mask id="mask-2" fill="white">
                                <use xlink:href="#path-1"></use>
                            </mask>
                            <use id="Mask" fill="#000000" fill-rule="nonzero" xlink:href="#path-1"></use>
                            <g id="Color-Color/Purple" mask="url(#mask-2)" fill="#FFFFFF">
                                <rect id="Purple" x="0" y="0" width="20" height="20"></rect>
                            </g>
                        </g>
                    </g>
                </g>
            </g>
        </g>
    </g>
</svg>