<?xml version="1.0" encoding="UTF-8"?>
<svg width="20px" height="20px" viewBox="0 0 20 20" version="1.1" xmlns="http://www.w3.org/2000/svg" xmlns:xlink="http://www.w3.org/1999/xlink">
    <!-- Generator: sketchtool 61.2 (101010) - https://sketch.com -->
    <title>9CB7128D-DDFC-41C5-B3EA-3ABE4A38296A</title>
    <desc>Created with sketchtool.</desc>
    <g id="Sign-Up-/-Sign-In" stroke="none" stroke-width="1" fill="none" fill-rule="evenodd">
        <g id="Desktop-Nav---Side-Nav-Sub-Menu-Open" transform="translate(-53.000000, -530.000000)" fill-rule="nonzero">
            <g id="Side-Nav" transform="translate(0.000000, 80.000000)">
                <g id="Settings" transform="translate(-1.000000, 430.000000)">
                    <g id="Content" transform="translate(34.000000, 18.000000)">
                        <g id="icon-settings" transform="translate(18.000000, 0.000000)">
                            <g id="Icon" fill="#FFFFFF">
                                <path d="M19.14,12.936 C19.176,12.636 19.2,12.324 19.2,12 C19.2,11.676 19.176,11.364 19.128,11.064 L21.156,9.48 C21.3352893,9.32980761 21.3852952,9.07477758 21.276,8.868 L19.356,5.544 C19.236,5.328 18.984,5.256 18.768,5.328 L16.38,6.288 C15.8841151,5.90521492 15.3392913,5.5904278 14.76,5.352 L14.4,2.808 C14.3641107,2.57134173 14.1593488,2.39729415 13.92,2.39996888 L10.08,2.39996888 C9.84309043,2.39759582 9.6419201,2.57297509 9.612,2.808 L9.252,5.352 C8.67368425,5.59240642 8.1291118,5.90704828 7.632,6.288 L5.244,5.328 C5.0215671,5.24224813 4.7700282,5.33465018 4.656,5.544 L2.736,8.868 C2.61299265,9.07256239 2.66485041,9.33703701 2.856,9.48 L4.884,11.064 C4.836,11.364 4.8,11.688 4.8,12 C4.8,12.312 4.824,12.636 4.872,12.936 L2.844,14.52 C2.66471071,14.6701924 2.61470482,14.9252224 2.724,15.132 L4.644,18.456 C4.764,18.672 5.016,18.744 5.232,18.672 L7.62,17.712 C8.11588486,18.0947851 8.66070871,18.4095722 9.24,18.648 L9.6,21.192 C9.648,21.432 9.84,21.6 10.08,21.6 L13.92,21.6 C14.16,21.6 14.364,21.432 14.388,21.192 L14.748,18.648 C15.3263158,18.4075936 15.8708882,18.0929517 16.368,17.712 L18.756,18.672 C18.972,18.756 19.224,18.672 19.344,18.456 L21.264,15.132 C21.3870074,14.9274376 21.3351496,14.662963 21.144,14.52 L19.14,12.936 L19.14,12.936 Z M12,15.6 C10.02,15.6 8.4,13.98 8.4,12 C8.4,10.02 10.02,8.4 12,8.4 C13.98,8.4 15.6,10.02 15.6,12 C15.6,13.98 13.98,15.6 12,15.6 Z" id="Icon-Shape"></path>
                            </g>
                            <rect id="ViewBox" x="0" y="0" width="24" height="24"></rect>
                        </g>
                    </g>
                </g>
            </g>
        </g>
    </g>
</svg>