<?xml version="1.0" encoding="UTF-8"?>
<svg width="20px" height="23px" viewBox="0 0 20 23" version="1.1" xmlns="http://www.w3.org/2000/svg" xmlns:xlink="http://www.w3.org/1999/xlink">
    <!-- Generator: sketchtool 62 (101010) - https://sketch.com -->
    <title>7034944A-2B82-4DA3-B708-B6FD19E54A27</title>
    <desc>Created with sketchtool.</desc>
    <defs>
        <path d="M19.1095437,15.8879774 C18.1438319,14.9222656 16.9444395,13.7203993 16.9444395,9.02777778 C16.9444395,5.58185764 14.4344135,2.72269965 11.1430941,2.17751736 C11.3034985,1.94584217 11.3892595,1.670674 11.388884,1.38888889 C11.388884,0.621831597 10.7670524,0 9.9999951,0 C9.23293781,0 8.61110621,0.621831597 8.61110621,1.38888889 C8.61110621,1.68185764 8.70203503,1.95347222 8.85689614,2.17751736 C5.5655767,2.72269965 3.05555066,5.58185764 3.05555066,9.02777778 C3.05555066,13.7203993 1.85576767,14.9222656 0.890055867,15.8879774 C-0.418494481,17.1965278 0.508892672,19.4444444 2.36318955,19.4444444 L7.22221733,19.4444444 C7.22221733,20.978559 8.46588052,22.2222222 9.9999951,22.2222222 C11.5341097,22.2222222 12.7777778,20.978559 12.7777778,19.4444444 L17.63641,19.4444444 C19.4870177,19.4444444 20.4207416,17.1991753 19.1095437,15.8879774 Z M9.9999951,20.4861111 C10.1917606,20.4861111 10.3472173,20.6415678 10.3472173,20.8333333 C10.3472173,21.0250989 10.1917606,21.1805556 9.9999951,21.1805556 C9.04270344,21.1805556 8.26388399,20.4017361 8.26388399,19.4444444 L8.95832844,19.4444444 C8.95832844,20.0188368 9.42560274,20.4861111 9.9999951,20.4861111 Z" id="path-1"></path>
    </defs>
    <g id="Navigation-2" stroke="none" stroke-width="1" fill="none" fill-rule="evenodd">
        <g id="Desktop-Nav---Side-Nav---Tracks" transform="translate(-934.000000, -29.000000)">
            <g id="Top-Nav">
                <g id="Right-Items" transform="translate(934.000000, 20.000000)">
                    <g id="icon-alerts" transform="translate(0.000000, 9.000000)">
                        <mask id="mask-2" fill="white">
                            <use xlink:href="#path-1"></use>
                        </mask>
                        <use id="Mask" fill="#000000" fill-rule="nonzero" xlink:href="#path-1"></use>
                        <g id="Color" mask="url(#mask-2)" fill="#FFFFFF">
                            <g transform="translate(-1.111111, 0.000000)" id="Purple">
                                <rect x="0" y="0" width="22.2222222" height="22.2222222"></rect>
                            </g>
                        </g>
                    </g>
                </g>
            </g>
        </g>
    </g>
</svg>