<?xml version="1.0" encoding="UTF-8"?>
<svg width="18px" height="18px" viewBox="0 0 18 18" version="1.1" xmlns="http://www.w3.org/2000/svg" xmlns:xlink="http://www.w3.org/1999/xlink">
    <!-- Generator: sketchtool 62 (101010) - https://sketch.com -->
    <title>31AA3C54-6265-4CD6-9C9C-E0B3951E040B</title>
    <desc>Created with sketchtool.</desc>
    <g id="Page-1" stroke="none" stroke-width="1" fill="none" fill-rule="evenodd">
        <g id="Sign-In---Desktop" transform="translate(-379.000000, -126.000000)" fill-rule="nonzero">
            <g id="Social-sign-up-options" transform="translate(362.000000, 110.000000)">
                <g id="Sign-up-with-Instagram">
                    <g id="icon-instagram" transform="translate(16.000000, 15.000000)">
                        <g id="Icon" transform="translate(1.000000, 0.620690)" fill="#FFFFFF">
                            <path d="M8.73232759,4.84913793 C6.26508621,4.84913793 4.275,6.83922414 4.275,9.30646552 C4.275,11.7737069 6.26508621,13.7637931 8.73232759,13.7637931 C11.199569,13.7637931 13.1896552,11.7737069 13.1896552,9.30646552 C13.1896552,6.83922414 11.199569,4.84913793 8.73232759,4.84913793 Z M8.73232759,12.2043103 C7.13793103,12.2043103 5.83448276,10.9047414 5.83448276,9.30646552 C5.83448276,7.70818966 7.13405172,6.40862069 8.73232759,6.40862069 C10.3306034,6.40862069 11.6301724,7.70818966 11.6301724,9.30646552 C11.6301724,10.9047414 10.3267241,12.2043103 8.73232759,12.2043103 L8.73232759,12.2043103 Z M14.4116379,4.66681034 C14.4116379,5.24482759 13.9461207,5.70646552 13.3719828,5.70646552 C12.7939655,5.70646552 12.3323276,5.24094828 12.3323276,4.66681034 C12.3323276,4.09267241 12.7978448,3.62715517 13.3719828,3.62715517 C13.9461207,3.62715517 14.4116379,4.09267241 14.4116379,4.66681034 Z M17.3637931,5.72198276 C17.2978448,4.32931034 16.9797414,3.09568966 15.9594828,2.07931034 C14.9431034,1.06293103 13.7094828,0.744827586 12.3168103,0.675 C10.8814655,0.593534483 6.57931034,0.593534483 5.14396552,0.675 C3.75517241,0.740948276 2.52155172,1.05905172 1.5012931,2.07543103 C0.481034483,3.09181034 0.166810345,4.32543103 0.0969827586,5.71810345 C0.0155172414,7.15344828 0.0155172414,11.4556034 0.0969827586,12.8909483 C0.162931034,14.2836207 0.481034483,15.5172414 1.5012931,16.5336207 C2.52155172,17.55 3.7512931,17.8681034 5.14396552,17.937931 C6.57931034,18.0193966 10.8814655,18.0193966 12.3168103,17.937931 C13.7094828,17.8719828 14.9431034,17.5538793 15.9594828,16.5336207 C16.9758621,15.5172414 17.2939655,14.2836207 17.3637931,12.8909483 C17.4452586,11.4556034 17.4452586,7.15732759 17.3637931,5.72198276 Z M15.5094828,14.4310345 C15.2068966,15.1913793 14.6211207,15.7771552 13.8568966,16.0836207 C12.7125,16.5375 9.99698276,16.4327586 8.73232759,16.4327586 C7.46767241,16.4327586 4.74827586,16.5336207 3.60775862,16.0836207 C2.84741379,15.7810345 2.26163793,15.1952586 1.95517241,14.4310345 C1.5012931,13.2866379 1.60603448,10.5711207 1.60603448,9.30646552 C1.60603448,8.04181034 1.50517241,5.32241379 1.95517241,4.18189655 C2.25775862,3.42155172 2.84353448,2.83577586 3.60775862,2.52931034 C4.75215517,2.07543103 7.46767241,2.18017241 8.73232759,2.18017241 C9.99698276,2.18017241 12.7163793,2.07931034 13.8568966,2.52931034 C14.6172414,2.83189655 15.2030172,3.41767241 15.5094828,4.18189655 C15.9633621,5.3262931 15.8586207,8.04181034 15.8586207,9.30646552 C15.8586207,10.5711207 15.9633621,13.2905172 15.5094828,14.4310345 Z" id="Icon-Shape"></path>
                        </g>
                        <rect id="ViewBox" x="0" y="0" width="17.3793103" height="19.862069"></rect>
                    </g>
                </g>
            </g>
        </g>
    </g>
</svg>