<?xml version="1.0" encoding="UTF-8"?>
<svg width="19px" height="19px" viewBox="0 0 19 19" version="1.1" xmlns="http://www.w3.org/2000/svg" xmlns:xlink="http://www.w3.org/1999/xlink">
    <!-- Generator: sketchtool 61.2 (101010) - https://sketch.com -->
    <title>89E0EE4B-FE0E-45BA-8481-561CAD46189C</title>
    <desc>Created with sketchtool.</desc>
    <g id="Sign-Up-/-Sign-In" stroke="none" stroke-width="1" fill="none" fill-rule="evenodd">
        <g id="Desktop-Nav---Side-Nav-Sub-Menu-Open" transform="translate(-55.000000, -188.000000)" fill-rule="nonzero">
            <g id="Side-Nav" transform="translate(0.000000, 80.000000)">
                <g id="My-Profile" transform="translate(-1.000000, 87.000000)">
                    <g id="Content" transform="translate(27.000000, 20.000000)">
                        <g id="icon-user-circle" transform="translate(28.000000, 0.000000)">
                            <g id="Icon" transform="translate(1.666667, 1.666667)" fill="#FFFFFF">
                                <path d="M9.16666667,0 C4.19741667,0 0,4.19741667 0,9.16666667 C0,14.1359167 4.19741667,18.3333333 9.16666667,18.3333333 C14.1359167,18.3333333 18.3333333,14.1359167 18.3333333,9.16666667 C18.3333333,4.19741667 14.1359167,0 9.16666667,0 Z M9.16666667,4.58333333 C10.74975,4.58333333 11.9166667,5.74933333 11.9166667,7.33333333 C11.9166667,8.91733333 10.74975,10.0833333 9.16666667,10.0833333 C7.5845,10.0833333 6.41666667,8.91733333 6.41666667,7.33333333 C6.41666667,5.74933333 7.5845,4.58333333 9.16666667,4.58333333 Z M4.48616667,13.541 C5.30841667,12.331 6.67975,11.5243333 8.25,11.5243333 L10.0833333,11.5243333 C11.6545,11.5243333 13.0249167,12.331 13.8471667,13.541 C12.6756667,14.795 11.01375,15.5833333 9.16666667,15.5833333 C7.31958333,15.5833333 5.65766667,14.795 4.48616667,13.541 Z" id="Icon-Shape"></path>
                            </g>
                            <rect id="ViewBox" x="0" y="0" width="20" height="20"></rect>
                        </g>
                    </g>
                </g>
            </g>
        </g>
    </g>
</svg>