<?xml version="1.0" encoding="UTF-8"?>
<svg width="15px" height="19px" viewBox="0 0 15 19" version="1.1" xmlns="http://www.w3.org/2000/svg" xmlns:xlink="http://www.w3.org/1999/xlink">
    <!-- Generator: sketchtool 61.2 (101010) - https://sketch.com -->
    <title>1B81A197-3B83-4437-B5A7-471841993553</title>
    <desc>Created with sketchtool.</desc>
    <g id="Sign-Up-/-Sign-In" stroke="none" stroke-width="1" fill="none" fill-rule="evenodd">
        <g id="Desktop-Nav---Side-Nav-Sub-Menu-Open" transform="translate(-56.000000, -444.000000)" fill-rule="nonzero">
            <g id="Side-Nav" transform="translate(0.000000, 80.000000)">
                <g id="Reports" transform="translate(-1.000000, 344.000000)">
                    <g id="Content" transform="translate(35.000000, 19.000000)">
                        <g id="icon-reports" transform="translate(19.000000, 0.000000)">
                            <g id="Icon" fill="#FFFFFF">
                                <path d="M17.5,7 L12.25,1.75 L5.25,1.75 C4.28350169,1.75 3.5,2.53350169 3.5,3.5 L3.5,17.5 C3.5,18.4664983 4.28350169,19.25 5.25,19.25 L15.75,19.25 C16.7164983,19.25 17.5,18.4664983 17.5,17.5 L17.5,7 Z M7.875,16.625 L6.125,16.625 L6.125,8.75 L7.875,8.75 L7.875,16.625 Z M11.375,16.625 L9.625,16.625 L9.625,11.375 L11.375,11.375 L11.375,16.625 Z M14.875,16.625 L13.125,16.625 L13.125,14 L14.875,14 L14.875,16.625 Z M12.25,7.875 L11.375,7.875 L11.375,3.5 L15.75,7.875 L12.25,7.875 Z" id="Icon-Shape"></path>
                            </g>
                            <rect id="ViewBox" x="0" y="0" width="21" height="21"></rect>
                        </g>
                    </g>
                </g>
            </g>
        </g>
    </g>
</svg>