<?xml version="1.0" encoding="UTF-8"?>
<svg width="14px" height="14px" viewBox="0 0 14 14" version="1.1" xmlns="http://www.w3.org/2000/svg" xmlns:xlink="http://www.w3.org/1999/xlink">
    <!-- Generator: sketchtool 62 (101010) - https://sketch.com -->
    <title>7250333F-F03E-4140-BEB7-E79343331B85</title>
    <desc>Created with sketchtool.</desc>
    <g id="Page-1" stroke="none" stroke-width="1" fill="none" fill-rule="evenodd">
        <g id="Sign-In---Desktop" transform="translate(-380.000000, -187.000000)" fill-rule="nonzero">
            <g id="Social-sign-up-options" transform="translate(362.000000, 110.000000)">
                <g id="Sign-up-with-Google" transform="translate(0.000000, 60.000000)">
                    <g id="icon-google" transform="translate(16.000000, 15.000000)">
                        <g id="Icon" transform="translate(1.800000, 1.800000)" fill="#FFFFFF">
                            <path d="M13.6863281,5.9765625 L7.33535156,5.9765625 L7.33535156,8.58691406 L10.9634766,8.58691406 C10.8070313,9.43066406 10.3324219,10.1443359 9.61699219,10.6224609 C9.01230469,11.0267578 8.240625,11.2658203 7.33359375,11.2658203 C5.57753906,11.2658203 4.0921875,10.0792969 3.56132812,8.48496094 C3.42773437,8.08066406 3.35039062,7.64824219 3.35039062,7.20351563 C3.35039062,6.75878906 3.42773437,6.32636719 3.56132812,5.92207031 C4.09394531,4.32949219 5.57929687,3.14296875 7.33535156,3.14296875 C8.325,3.14296875 9.21269531,3.48398437 9.91230469,4.15195312 L11.8458984,2.21660156 C10.6769531,1.12675781 9.15292969,0.458789062 7.33535156,0.458789062 C4.70039063,0.458789062 2.42050781,1.97050781 1.31132813,4.17480469 C0.854296875,5.08535156 0.594140625,6.11542969 0.594140625,7.20527344 C0.594140625,8.29511719 0.854296875,9.3234375 1.31132812,10.2339844 C2.42050781,12.4382812 4.70039062,13.95 7.33535156,13.95 C9.15644531,13.95 10.6822266,13.3453125 11.7966797,12.3152344 C13.0710938,11.1410156 13.8076172,9.41132812 13.8076172,7.35644531 C13.8076172,6.87832031 13.7654297,6.41953125 13.6863281,5.9765625 Z" id="Icon-Path"></path>
                        </g>
                        <rect id="ViewBox" x="0" y="0" width="18" height="18"></rect>
                    </g>
                </g>
            </g>
        </g>
    </g>
</svg>