<?xml version="1.0" encoding="UTF-8"?>
<svg width="52px" height="42px" viewBox="0 0 52 42" version="1.1" xmlns="http://www.w3.org/2000/svg" xmlns:xlink="http://www.w3.org/1999/xlink">
    <!-- Generator: sketchtool 62 (101010) - https://sketch.com -->
    <title>D0B4B872-595C-4D3A-B8E8-A4AB60425274</title>
    <desc>Created with sketchtool.</desc>
    <g id="Add-Streamy" stroke="none" stroke-width="1" fill="none" fill-rule="evenodd">
        <g id="Desktop---Add-Streamy---Step-2---Upload" transform="translate(-282.000000, -285.000000)">
            <g id="Upload" transform="translate(168.000000, 241.000000)">
                <g id="Content" transform="translate(54.000000, 34.000000)">
                    <g id="icon-cloud-upload" transform="translate(56.000000, 0.000000)">
                        <polygon id="Path" points="0 0 60.6453956 0 60.6453956 60.8835965 0 60.8835965"></polygon>
                        <g id="ant-design:cloud-upload-outlined" transform="translate(1.014677, 1.020876)" fill-rule="nonzero">
                            <g id="Icon" transform="translate(3.134448, 9.187888)" fill="#D7D7D7">
                                <path d="M26.238123,17.3432991 C26.1505492,17.230918 26.0163589,17.1652557 25.8742661,17.1652557 C25.7321734,17.1652557 25.5979831,17.230918 25.5104093,17.3432991 L19.0418427,25.5625147 C18.9330344,25.7020617 18.9131246,25.8917582 18.9905707,26.0510229 C19.0680169,26.2102876 19.2292189,26.3111524 19.4056996,26.3107708 L23.6737984,26.3107708 L23.6737984,40.3710239 C23.6737984,40.626243 23.8817166,40.8350587 24.1358389,40.8350587 L27.6011424,40.8350587 C27.8552646,40.8350587 28.0631829,40.626243 28.0631829,40.3710239 L28.0631829,26.3165712 L32.3428327,26.3165712 C32.7297916,26.3165712 32.9434853,25.8699377 32.7066895,25.5683151 L26.238123,17.3432991 Z" id="Icon-Path"></path>
                                <path d="M43.1661306,11.989498 C40.5209489,4.98257321 33.7809336,0 25.8858172,0 C17.9907007,0 11.2506854,4.97677277 8.6055037,11.9836976 C3.65589519,13.2887954 0,17.8189347 0,23.2017379 C0,29.611218 5.16907772,34.8026068 11.5452362,34.8026068 L13.861214,34.8026068 C14.1153363,34.8026068 14.3232545,34.5937912 14.3232545,34.3385721 L14.3232545,30.8583114 C14.3232545,30.6030923 14.1153363,30.3942766 13.861214,30.3942766 L11.5452362,30.3942766 C9.5988907,30.3942766 7.76805535,29.6170184 6.40503597,28.2075128 C5.0477921,26.8038077 4.32585387,24.912866 4.38938444,22.9523192 C4.44136399,21.4210045 4.96115951,19.9824967 5.90256696,18.7702059 C6.86707644,17.5347134 8.2185448,16.6356461 9.72017632,16.2354161 L11.909093,15.6611731 L12.7118883,13.5382141 C13.2085818,12.215715 13.9016425,10.9802224 14.7737439,9.8607386 C15.6347086,8.75116019 16.6545628,7.77577121 17.800109,6.9663218 C20.1738419,5.28999624 22.9691867,4.40252976 25.8858172,4.40252976 C28.8024476,4.40252976 31.5977924,5.28999624 33.9715253,6.9663218 C35.120851,7.77838262 36.13734,8.75285561 36.9978904,9.8607386 C37.8699918,10.9802224 38.5630525,12.2215154 39.059746,13.5382141 L39.8567658,15.6553726 L42.039907,16.2354161 C45.1702311,17.0822795 47.3591479,19.9418937 47.3591479,23.2017379 C47.3591479,25.1216817 46.6141076,26.9314172 45.2626392,28.2887189 C43.9239148,29.6410834 42.1020751,30.3992823 40.2032961,30.3942766 L37.8873183,30.3942766 C37.633196,30.3942766 37.4252778,30.6030923 37.4252778,30.8583114 L37.4252778,34.3385721 C37.4252778,34.5937912 37.633196,34.8026068 37.8873183,34.8026068 L40.2032961,34.8026068 C46.5794546,34.8026068 51.7485323,29.611218 51.7485323,23.2017379 C51.7485323,17.8247351 48.1041881,13.3003962 43.1661306,11.989498 Z" id="Icon-Path"></path>
                            </g>
                            <rect id="ViewBox" x="0.0904167716" y="0" width="58.851272" height="59.2108351"></rect>
                        </g>
                    </g>
                </g>
            </g>
        </g>
    </g>
</svg>