<?xml version="1.0" encoding="UTF-8"?>
<svg width="20px" height="20px" viewBox="0 0 20 20" version="1.1" xmlns="http://www.w3.org/2000/svg" xmlns:xlink="http://www.w3.org/1999/xlink">
    <!-- Generator: sketchtool 61.2 (101010) - https://sketch.com -->
    <title>8C7FF346-712F-4F37-9B69-793FA90D4F44</title>
    <desc>Created with sketchtool.</desc>
    <defs>
        <path d="M2.62826389,17.7734375 C2.01040861,17.7734375 1.44321784,17.4319284 1.154375,16.886051 C0.417465278,15.4934605 0,13.9060135 0,12.2209821 C0,6.70121687 4.47715278,2.2265625 10,2.2265625 C15.5228472,2.2265625 20,6.70121687 20,12.2209821 C20,13.9060135 19.5825347,15.4934605 18.845625,16.886051 C18.5567939,17.4319394 17.9895957,17.7734375 17.3717361,17.7734375 L2.62826389,17.7734375 Z M17.7777774,11.1104912 C17.1641316,11.1104912 16.6666663,11.6076788 16.6666663,12.2209822 C16.6666663,12.8342856 17.1641316,13.3314733 17.7777774,13.3314733 C18.3914232,13.3314733 18.8888885,12.8342856 18.8888885,12.2209822 C18.8888885,11.6076788 18.3914232,11.1104912 17.7777774,11.1104912 Z M10.0000001,5.55803575 C10.6136459,5.55803575 11.1111112,5.06084807 11.1111112,4.44754466 C11.1111112,3.83424126 10.6136459,3.33705358 10.0000001,3.33705358 C9.38635424,3.33705358 8.88888896,3.83424126 8.88888896,4.44754466 C8.88888896,5.06084807 9.38635424,5.55803575 10.0000001,5.55803575 Z M2.22222224,11.1104912 C1.6085764,11.1104912 1.11111112,11.6076788 1.11111112,12.2209822 C1.11111112,12.8342856 1.6085764,13.3314733 2.22222224,13.3314733 C2.83586808,13.3314733 3.33333336,12.8342856 3.33333336,12.2209822 C3.33333336,11.6076788 2.83586808,11.1104912 2.22222224,11.1104912 Z M4.50027771,5.61383784 C3.88663188,5.61383784 3.38916659,6.11102552 3.38916659,6.72432892 C3.38916659,7.33763232 3.88663188,7.83482 4.50027771,7.83482 C5.11392355,7.83482 5.61138883,7.33763232 5.61138883,6.72432892 C5.61138883,6.11102552 5.11392355,5.61383784 4.50027771,5.61383784 Z M15.4997224,5.61383784 C14.8860766,5.61383784 14.3886113,6.11102552 14.3886113,6.72432892 C14.3886113,7.33763232 14.8860766,7.83482 15.4997224,7.83482 C16.1133683,7.83482 16.6108336,7.33763232 16.6108336,6.72432892 C16.6108336,6.11102552 16.1133683,5.61383784 15.4997224,5.61383784 Z M12.4761805,6.70815733 C12.0377431,6.56795783 11.5687847,6.80948964 11.428507,7.24757837 L9.8339584,12.2278185 C8.68430566,12.3127711 7.77777791,13.271229 7.77777791,14.4419642 C7.77777791,15.668571 8.77270843,16.6629463 10.0000001,16.6629463 C11.2272917,16.6629463 12.2222222,15.668571 12.2222222,14.4419642 C12.2222222,13.7557848 11.9107292,13.1424467 11.4214931,12.7350353 L13.0159027,7.7552463 C13.1561458,7.31712287 12.9145139,6.84835683 12.4761805,6.70815733 L12.4761805,6.70815733 Z" id="path-1"></path>
    </defs>
    <g id="Asset-Artboard-Page" stroke="none" stroke-width="1" fill="none" fill-rule="evenodd">
        <g id="tachometer-alt-Solid/tachometer-alt">
            <mask id="mask-2" fill="white">
                <use xlink:href="#path-1"></use>
            </mask>
            <use id="Mask" fill="#000000" fill-rule="nonzero" xlink:href="#path-1"></use>
            <g id="Color-Color/Purple" mask="url(#mask-2)" fill="#FFFFFF">
                <rect id="Purple" x="0" y="0" width="20" height="20"></rect>
            </g>
        </g>
    </g>
</svg>